<svg width="127" height="153" viewBox="0 0 127 153" fill="none" xmlns="http://www.w3.org/2000/svg">
<rect width="126.48" height="153" rx="63.24" fill="#F0F0F0"/>
<path d="M37.48 51.5L42.98 91H81.98L85.48 51.5L75.48 51L73.98 59H50.48L47.98 51.5H37.48Z" fill="#FA5252"/>
<path d="M38.48 52H48.98L51.48 59.5H74.98L76.48 51.5L86.48 52L86.0369 57L82.98 91.5H76.48H48H43.98L39.0369 56L38.48 52Z" fill="#F14E4E"/>
<path d="M39.5 57.5V52L49.5 51L51.5 59.5H75L76 51H86.5V57H81.5L79.5 65H46.5L45 57L39.5 57.5Z" fill="white"/>
<path d="M49 84.5C48.8333 87 48.4 92.1 48 92.5H77.5L76 83L49 84.5Z" fill="white"/>
<path d="M42.48 35V50.5L42.98 51.5L48.98 52L51.48 60H74.48C74.88 60 75.6466 54.6667 75.98 52C77.98 51.8333 82.18 51.4 82.98 51C83.78 50.6 83.6466 39.1667 83.48 33.5C81.6466 33 77.78 32 76.98 32C76.18 32 76.6466 28.3333 76.98 26.5L70.48 25.5C70.1466 28.6667 69.48 35.2 69.48 36C69.48 36.8 65.48 36.3333 63.48 36V26.5H56.98V21.5C56.98 21.1 51.6466 20 48.98 19.5V34.5L42.48 35Z" fill="#FFEF75"/>
<path d="M88.0908 50.9136C87.7998 50.6061 87.3831 50.4302 86.9458 50.4302H85.1549V32.2448C85.1549 31.4465 84.4681 30.7994 83.6209 30.7994H78.2745V25.2504C78.2745 24.4522 77.5877 23.8051 76.7405 23.8051H69.8602C69.0129 23.8051 68.3261 24.4522 68.3261 25.2504V34.7121H64.514V26.8083C64.514 26.0101 63.8272 25.363 62.98 25.363H57.6336V20.4453C57.6336 19.6471 56.9468 19 56.0996 19H49.2191C48.3719 19 47.6851 19.6471 47.6851 20.4453V33.0231H42.3387C41.4915 33.0231 40.8047 33.6701 40.8047 34.4684V50.4302H39.014C38.5766 50.4302 38.16 50.6061 37.869 50.9136C37.5779 51.2212 37.44 51.6312 37.49 52.0406L42.3351 91.7199C42.4242 92.4493 43.0797 93 43.8591 93H82.1011C82.8805 93 83.536 92.4493 83.625 91.7199L88.47 52.0406C88.5197 51.6312 88.3818 51.2212 88.0908 50.9136ZM78.2747 33.6901H82.087V50.4302H78.2747V33.6901ZM71.3943 26.6957H75.2066V50.7808C74.9381 50.9988 74.7494 51.304 74.6919 51.6552L73.5728 58.4877H71.3943V26.6957ZM64.514 37.6027H68.3263V58.4875H64.514V37.6027ZM57.6336 28.2536H61.4459V58.4875H57.6336V28.2536ZM50.7532 21.8906H54.5655V58.4875H52.387L51.2679 51.6551C51.2104 51.304 51.0217 50.9986 50.7532 50.7807V21.8906ZM43.873 35.9137H47.6852V50.4302H43.873V35.9137ZM50.8064 90.1095L51.4507 84.8315H74.509L75.1533 90.1095H50.8064ZM80.7332 90.1095H78.2417L77.4009 83.2211C77.3117 82.4917 76.6562 81.941 75.8768 81.941H50.083C49.3035 81.941 48.648 82.4917 48.5589 83.2211L47.7181 90.1095H45.2266L43.1619 73.1984H72.6226C73.4698 73.1984 74.1566 72.5514 74.1566 71.7531C74.1566 70.9549 73.4698 70.3078 72.6226 70.3078H42.8091L41.3537 58.3872H43.8249L44.9439 65.22C45.0592 65.9249 45.7031 66.4449 46.46 66.4449H79.4998C80.2567 66.4449 80.9005 65.9247 81.0159 65.22L82.1348 58.3872H84.606L80.7332 90.1095ZM84.959 55.4966H80.8194C80.0625 55.4966 79.4188 56.0168 79.3033 56.7215L78.1843 63.5542H47.7754L46.6565 56.7215C46.541 56.0166 45.8973 55.4966 45.1404 55.4966H41.0007L40.7352 53.321H48.4357L49.555 60.1533C49.6202 60.5513 49.8539 60.8905 50.1815 61.1104C50.1845 61.1124 50.1876 61.1144 50.1907 61.1164C50.1968 61.1205 50.2031 61.1245 50.2092 61.1286C50.2141 61.1317 50.219 61.1348 50.2241 61.138C50.2283 61.1406 50.2325 61.1432 50.2367 61.1458C50.2433 61.1498 50.2499 61.1537 50.2565 61.1576C50.2589 61.1591 50.2614 61.1605 50.2638 61.162C50.2717 61.1666 50.2796 61.1711 50.2876 61.1755L50.2911 61.1776C50.4527 61.2678 50.6332 61.3306 50.8259 61.3598L50.8285 61.3603C50.8379 61.3617 50.8472 61.363 50.8568 61.3642C50.8597 61.3646 50.8624 61.3649 50.8653 61.3653C50.8736 61.3663 50.8819 61.3673 50.8902 61.3682C50.8945 61.3686 50.8986 61.3692 50.9029 61.3696C50.9103 61.3704 50.9177 61.3711 50.9252 61.3718C50.9304 61.3722 50.9355 61.3727 50.9407 61.3731C50.9474 61.3737 50.9542 61.3741 50.9609 61.3747C50.9669 61.3751 50.973 61.3754 50.9792 61.3757C50.9853 61.376 50.9914 61.3764 50.9976 61.3767C51.0053 61.377 51.0129 61.3773 51.0206 61.3776C51.025 61.3777 51.0296 61.3779 51.0341 61.378C51.0467 61.3783 51.0592 61.3785 51.0718 61.3785H74.8887C74.9013 61.3785 74.9139 61.3783 74.9264 61.378C74.9309 61.3779 74.9355 61.3777 74.9399 61.3776C74.9476 61.3773 74.9553 61.3772 74.9629 61.3767C74.9691 61.3764 74.9752 61.3762 74.9813 61.3757C74.9875 61.3754 74.9935 61.375 74.9996 61.3747C75.0064 61.3743 75.0131 61.3737 75.0199 61.3731C75.0251 61.3727 75.0301 61.3722 75.0354 61.3718C75.0427 61.3711 75.0502 61.3704 75.0576 61.3696C75.0619 61.3692 75.066 61.3688 75.0703 61.3682C75.0786 61.3673 75.0869 61.3663 75.0952 61.3653C75.0979 61.3649 75.1009 61.3646 75.1038 61.3642C75.1131 61.3629 75.1226 61.3616 75.132 61.3603L75.1346 61.3598C75.3273 61.3306 75.5078 61.2676 75.6694 61.1776L75.6729 61.1755C75.6809 61.1711 75.6887 61.1666 75.6967 61.162C75.6991 61.1605 75.7016 61.1591 75.704 61.1576C75.7106 61.1537 75.7172 61.1497 75.7238 61.1458C75.7281 61.1432 75.7323 61.1406 75.7364 61.138C75.7413 61.1348 75.7464 61.1317 75.7513 61.1286C75.7576 61.1245 75.7637 61.1205 75.7699 61.1164C75.7729 61.1144 75.776 61.1124 75.7791 61.1104C76.1066 60.8905 76.3404 60.5514 76.4056 60.1533L77.5248 53.321H85.2253L84.959 55.4966Z" fill="#323232"/>
<path d="M7.72722 112.328L13.8712 101.72H15.5832L18.0312 112.744L16.5752 113.08L15.9032 109.88H10.7192L8.94322 113.048L7.72722 112.328ZM11.4392 108.6H15.6312L14.4952 103.208L11.4392 108.6ZM25.6806 106.28C25.4033 106.109 25.1099 105.971 24.8006 105.864C24.5019 105.747 24.1659 105.688 23.7926 105.688C23.3446 105.688 22.9393 105.779 22.5766 105.96C22.2139 106.141 21.9046 106.392 21.6486 106.712C21.3926 107.021 21.1953 107.389 21.0566 107.816C20.9179 108.243 20.8486 108.701 20.8486 109.192C20.8486 110.003 21.0513 110.648 21.4566 111.128C21.8619 111.597 22.4166 111.832 23.1206 111.832C23.5259 111.832 23.8833 111.784 24.1926 111.688C24.5019 111.592 24.7846 111.48 25.0406 111.352L25.2166 112.616C24.9499 112.733 24.6246 112.845 24.2406 112.952C23.8673 113.059 23.4139 113.112 22.8806 113.112C22.3579 113.112 21.8833 113.027 21.4566 112.856C21.0299 112.675 20.6619 112.419 20.3526 112.088C20.0433 111.757 19.8033 111.368 19.6326 110.92C19.4619 110.461 19.3766 109.949 19.3766 109.384C19.3766 108.712 19.4779 108.077 19.6806 107.48C19.8939 106.883 20.1979 106.355 20.5926 105.896C20.9873 105.437 21.4619 105.075 22.0166 104.808C22.5713 104.541 23.2006 104.408 23.9046 104.408C24.4059 104.408 24.8486 104.472 25.2326 104.6C25.6166 104.717 25.9633 104.867 26.2726 105.048L25.6806 106.28ZM30.4056 111.832C30.8856 111.832 31.3123 111.741 31.6856 111.56C32.0589 111.379 32.3789 111.128 32.6456 110.808C32.9123 110.488 33.1149 110.115 33.2536 109.688C33.3923 109.261 33.4616 108.797 33.4616 108.296C33.4616 107.933 33.4029 107.592 33.2856 107.272C33.1789 106.952 33.0189 106.675 32.8056 106.44C32.6029 106.205 32.3523 106.024 32.0536 105.896C31.7549 105.757 31.4136 105.688 31.0296 105.688C30.5603 105.688 30.1336 105.779 29.7496 105.96C29.3763 106.141 29.0563 106.392 28.7896 106.712C28.5229 107.032 28.3203 107.411 28.1816 107.848C28.0429 108.275 27.9736 108.733 27.9736 109.224C27.9736 109.587 28.0269 109.928 28.1336 110.248C28.2403 110.568 28.3949 110.845 28.5976 111.08C28.8109 111.315 29.0669 111.501 29.3656 111.64C29.6749 111.768 30.0216 111.832 30.4056 111.832ZM30.3576 113.112C29.7603 113.112 29.2216 113.021 28.7416 112.84C28.2723 112.648 27.8723 112.387 27.5416 112.056C27.2109 111.725 26.9549 111.331 26.7736 110.872C26.5923 110.403 26.5016 109.896 26.5016 109.352C26.5016 108.659 26.6083 108.013 26.8216 107.416C27.0349 106.808 27.3389 106.285 27.7336 105.848C28.1389 105.4 28.6243 105.048 29.1896 104.792C29.7549 104.536 30.3843 104.408 31.0776 104.408C31.6643 104.408 32.1976 104.504 32.6776 104.696C33.1576 104.877 33.5629 105.133 33.8936 105.464C34.2243 105.795 34.4803 106.195 34.6616 106.664C34.8429 107.123 34.9336 107.624 34.9336 108.168C34.9336 108.861 34.8269 109.512 34.6136 110.12C34.4003 110.717 34.0909 111.24 33.6856 111.688C33.2909 112.125 32.8109 112.472 32.2456 112.728C31.6803 112.984 31.0509 113.112 30.3576 113.112ZM46.559 105.672C46.2923 105.672 46.0043 105.747 45.695 105.896C45.3856 106.045 45.087 106.275 44.799 106.584C44.5216 106.893 44.2656 107.288 44.031 107.768C43.807 108.248 43.6363 108.819 43.519 109.48L42.911 112.92H41.471L42.383 107.944C42.4363 107.688 42.4683 107.501 42.479 107.384C42.4896 107.267 42.495 107.149 42.495 107.032C42.495 106.616 42.3723 106.285 42.127 106.04C41.8923 105.795 41.583 105.672 41.199 105.672C40.9216 105.672 40.6283 105.752 40.319 105.912C40.0096 106.061 39.711 106.296 39.423 106.616C39.135 106.936 38.8736 107.347 38.639 107.848C38.415 108.339 38.2443 108.925 38.127 109.608L37.551 112.92H36.111L37.567 104.6H38.959L38.607 106.52C38.927 105.88 39.359 105.368 39.903 104.984C40.447 104.6 41.0176 104.408 41.615 104.408C41.9456 104.408 42.2443 104.461 42.511 104.568C42.7776 104.675 43.007 104.824 43.199 105.016C43.4016 105.197 43.5616 105.421 43.679 105.688C43.7963 105.944 43.871 106.221 43.903 106.52C44.2656 105.848 44.7083 105.331 45.231 104.968C45.7643 104.595 46.3403 104.408 46.959 104.408C47.311 104.408 47.631 104.467 47.919 104.584C48.207 104.701 48.4523 104.867 48.655 105.08C48.8576 105.283 49.0123 105.523 49.119 105.8C49.2363 106.077 49.295 106.376 49.295 106.696C49.295 106.973 49.263 107.309 49.199 107.704L48.271 112.92H46.831L47.743 107.944C47.7963 107.688 47.8283 107.501 47.839 107.384C47.8496 107.267 47.855 107.149 47.855 107.032C47.855 106.616 47.7323 106.285 47.487 106.04C47.2523 105.795 46.943 105.672 46.559 105.672ZM51.6803 104.6C52.7897 104.6 53.3443 105.08 53.3443 106.04V106.376C53.6537 105.8 54.0483 105.331 54.5283 104.968C55.019 104.595 55.595 104.408 56.2563 104.408C56.683 104.408 57.0723 104.493 57.4243 104.664C57.7763 104.835 58.075 105.075 58.3203 105.384C58.5657 105.683 58.7523 106.045 58.8803 106.472C59.019 106.888 59.0883 107.352 59.0883 107.864C59.0883 108.653 58.971 109.373 58.7363 110.024C58.5017 110.664 58.1923 111.213 57.8083 111.672C57.4243 112.131 56.9817 112.488 56.4803 112.744C55.9897 112.989 55.483 113.112 54.9603 113.112C54.4483 113.112 53.9683 112.984 53.5203 112.728C53.083 112.472 52.7417 112.157 52.4963 111.784L51.6803 116.44H50.2403L51.9043 106.92C51.9363 106.749 51.9523 106.6 51.9523 106.472C51.9523 105.971 51.691 105.72 51.1683 105.72L51.6803 104.6ZM54.8323 111.832C55.2057 111.832 55.5577 111.741 55.8883 111.56C56.2297 111.368 56.5283 111.107 56.7843 110.776C57.0403 110.435 57.243 110.029 57.3923 109.56C57.5417 109.091 57.6163 108.573 57.6163 108.008C57.6163 107.272 57.451 106.696 57.1203 106.28C56.7897 105.864 56.3577 105.656 55.8243 105.656C55.5043 105.656 55.1897 105.736 54.8803 105.896C54.5817 106.045 54.3097 106.259 54.0643 106.536C53.819 106.813 53.6003 107.155 53.4083 107.56C53.227 107.955 53.0937 108.392 53.0083 108.872L52.7203 110.488C52.955 110.925 53.2537 111.261 53.6163 111.496C53.9897 111.72 54.395 111.832 54.8323 111.832ZM60.3453 109.64C60.3453 108.872 60.4733 108.168 60.7293 107.528C60.996 106.877 61.364 106.323 61.8333 105.864C62.3027 105.405 62.8627 105.048 63.5133 104.792C64.164 104.536 64.8733 104.408 65.6413 104.408C66.2707 104.408 66.82 104.472 67.2893 104.6C67.7693 104.728 68.164 104.856 68.4733 104.984L67.4653 110.664C67.4547 110.717 67.444 110.781 67.4333 110.856C67.4333 110.92 67.4333 110.989 67.4333 111.064C67.4333 111.363 67.5187 111.576 67.6893 111.704C67.86 111.821 68.084 111.88 68.3613 111.88L67.8653 113C67.2893 113 66.8467 112.861 66.5373 112.584C66.2387 112.307 66.0893 111.864 66.0893 111.256C65.7907 111.768 65.412 112.205 64.9533 112.568C64.5053 112.931 63.9773 113.112 63.3693 113.112C62.9747 113.112 62.596 113.032 62.2333 112.872C61.8707 112.712 61.5453 112.483 61.2573 112.184C60.98 111.885 60.756 111.523 60.5853 111.096C60.4253 110.659 60.3453 110.173 60.3453 109.64ZM66.8893 105.832C66.6867 105.768 66.4733 105.72 66.2493 105.688C66.036 105.645 65.7747 105.624 65.4653 105.624C64.9107 105.624 64.4093 105.72 63.9613 105.912C63.5133 106.104 63.1293 106.371 62.8093 106.712C62.4893 107.053 62.244 107.459 62.0733 107.928C61.9027 108.397 61.8173 108.909 61.8173 109.464C61.8173 109.848 61.8707 110.189 61.9773 110.488C62.0947 110.776 62.244 111.021 62.4253 111.224C62.6067 111.427 62.8093 111.581 63.0333 111.688C63.268 111.784 63.508 111.832 63.7533 111.832C64.0733 111.832 64.3773 111.747 64.6653 111.576C64.964 111.405 65.2307 111.165 65.4653 110.856C65.7 110.536 65.9027 110.163 66.0733 109.736C66.244 109.299 66.372 108.824 66.4573 108.312L66.8893 105.832ZM75.0461 105.672C74.7688 105.672 74.4648 105.752 74.1341 105.912C73.8141 106.061 73.4994 106.296 73.1901 106.616C72.8914 106.936 72.6194 107.347 72.3741 107.848C72.1288 108.339 71.9474 108.925 71.8301 109.608L71.2541 112.92H69.8141L71.2701 104.6H72.6621L72.3101 106.52C72.6408 105.88 73.0834 105.368 73.6381 104.984C74.1928 104.6 74.7848 104.408 75.4141 104.408C75.7768 104.408 76.1074 104.467 76.4061 104.584C76.7048 104.701 76.9554 104.867 77.1581 105.08C77.3714 105.283 77.5314 105.523 77.6381 105.8C77.7554 106.077 77.8141 106.376 77.8141 106.696C77.8141 106.973 77.7821 107.309 77.7181 107.704L76.8061 112.92H75.3661L76.2461 107.944C76.2994 107.688 76.3314 107.501 76.3421 107.384C76.3528 107.267 76.3581 107.149 76.3581 107.032C76.3581 106.616 76.2354 106.285 75.9901 106.04C75.7554 105.795 75.4408 105.672 75.0461 105.672ZM77.7981 102.424C77.5741 102.616 77.3341 102.792 77.0781 102.952C76.8328 103.101 76.5448 103.176 76.2141 103.176C76.0008 103.176 75.8141 103.149 75.6541 103.096C75.5048 103.032 75.3608 102.968 75.2221 102.904C75.0834 102.829 74.9448 102.765 74.8061 102.712C74.6674 102.648 74.5074 102.616 74.3261 102.616C74.0808 102.616 73.8514 102.675 73.6381 102.792C73.4354 102.899 73.2381 103.032 73.0461 103.192L72.6621 102.2C72.9074 101.965 73.1848 101.768 73.4941 101.608C73.8141 101.448 74.1288 101.368 74.4381 101.368C74.6408 101.368 74.8168 101.4 74.9661 101.464C75.1261 101.517 75.2701 101.576 75.3981 101.64C75.5368 101.704 75.6754 101.768 75.8141 101.832C75.9528 101.885 76.1181 101.912 76.3101 101.912C76.5234 101.912 76.7208 101.864 76.9021 101.768C77.0834 101.661 77.2541 101.544 77.4141 101.416L77.7981 102.424ZM79.236 109.64C79.236 108.872 79.364 108.168 79.62 107.528C79.8866 106.877 80.2546 106.323 80.724 105.864C81.1933 105.405 81.7533 105.048 82.404 104.792C83.0546 104.536 83.764 104.408 84.532 104.408C85.1613 104.408 85.7106 104.472 86.18 104.6C86.66 104.728 87.0546 104.856 87.364 104.984L86.356 110.664C86.3453 110.717 86.3346 110.781 86.324 110.856C86.324 110.92 86.324 110.989 86.324 111.064C86.324 111.363 86.4093 111.576 86.58 111.704C86.7506 111.821 86.9746 111.88 87.252 111.88L86.756 113C86.18 113 85.7373 112.861 85.428 112.584C85.1293 112.307 84.98 111.864 84.98 111.256C84.6813 111.768 84.3026 112.205 83.844 112.568C83.396 112.931 82.868 113.112 82.26 113.112C81.8653 113.112 81.4866 113.032 81.124 112.872C80.7613 112.712 80.436 112.483 80.148 112.184C79.8706 111.885 79.6466 111.523 79.476 111.096C79.316 110.659 79.236 110.173 79.236 109.64ZM85.78 105.832C85.5773 105.768 85.364 105.72 85.14 105.688C84.9266 105.645 84.6653 105.624 84.356 105.624C83.8013 105.624 83.3 105.72 82.852 105.912C82.404 106.104 82.02 106.371 81.7 106.712C81.38 107.053 81.1346 107.459 80.964 107.928C80.7933 108.397 80.708 108.909 80.708 109.464C80.708 109.848 80.7613 110.189 80.868 110.488C80.9853 110.776 81.1346 111.021 81.316 111.224C81.4973 111.427 81.7 111.581 81.924 111.688C82.1586 111.784 82.3986 111.832 82.644 111.832C82.964 111.832 83.268 111.747 83.556 111.576C83.8546 111.405 84.1213 111.165 84.356 110.856C84.5906 110.536 84.7933 110.163 84.964 109.736C85.1346 109.299 85.2626 108.824 85.348 108.312L85.78 105.832ZM93.9367 105.672C93.6594 105.672 93.3554 105.752 93.0247 105.912C92.7047 106.061 92.3901 106.296 92.0807 106.616C91.7821 106.936 91.5101 107.347 91.2647 107.848C91.0194 108.339 90.8381 108.925 90.7207 109.608L90.1447 112.92H88.7047L90.1607 104.6H91.5527L91.2007 106.52C91.5314 105.88 91.9741 105.368 92.5287 104.984C93.0834 104.6 93.6754 104.408 94.3047 104.408C94.6674 104.408 94.9981 104.467 95.2967 104.584C95.5954 104.701 95.8461 104.867 96.0487 105.08C96.2621 105.283 96.4221 105.523 96.5287 105.8C96.6461 106.077 96.7047 106.376 96.7047 106.696C96.7047 106.973 96.6727 107.309 96.6087 107.704L95.6967 112.92H94.2567L95.1367 107.944C95.1901 107.688 95.2221 107.501 95.2327 107.384C95.2434 107.267 95.2487 107.149 95.2487 107.032C95.2487 106.616 95.1261 106.285 94.8807 106.04C94.6461 105.795 94.3314 105.672 93.9367 105.672ZM98.4146 104.904H99.8866L100.655 102.28H101.759L101.295 104.904H103.599L103.391 106.152H101.071L100.399 110.04C100.356 110.253 100.335 110.456 100.335 110.648C100.335 111.021 100.441 111.315 100.655 111.528C100.879 111.731 101.177 111.832 101.551 111.832C101.86 111.832 102.116 111.789 102.319 111.704C102.532 111.608 102.729 111.512 102.911 111.416L103.087 112.664C102.884 112.781 102.628 112.883 102.319 112.968C102.02 113.064 101.684 113.112 101.311 113.112C101.012 113.112 100.719 113.064 100.431 112.968C100.143 112.883 99.8866 112.749 99.6626 112.568C99.4386 112.376 99.2573 112.131 99.1186 111.832C98.9799 111.533 98.9106 111.176 98.9106 110.76C98.9106 110.643 98.9159 110.525 98.9266 110.408C98.9373 110.28 98.9533 110.136 98.9746 109.976L99.6306 106.152H98.2066L98.4146 104.904ZM107.804 113.112C107.271 113.112 106.786 113.027 106.348 112.856C105.911 112.675 105.532 112.424 105.212 112.104C104.903 111.773 104.658 111.373 104.476 110.904C104.306 110.435 104.22 109.907 104.22 109.32C104.22 108.659 104.327 108.029 104.54 107.432C104.754 106.835 105.052 106.312 105.436 105.864C105.831 105.416 106.306 105.064 106.86 104.808C107.415 104.541 108.034 104.408 108.716 104.408C109.175 104.408 109.586 104.477 109.948 104.616C110.311 104.755 110.615 104.936 110.86 105.16C111.116 105.384 111.308 105.645 111.436 105.944C111.575 106.243 111.644 106.552 111.644 106.872C111.644 107.469 111.5 107.955 111.212 108.328C110.935 108.701 110.583 109 110.156 109.224C109.73 109.437 109.26 109.587 108.748 109.672C108.236 109.747 107.751 109.784 107.292 109.784C107.004 109.784 106.716 109.773 106.428 109.752C106.151 109.72 105.906 109.688 105.692 109.656C105.778 110.36 106.023 110.899 106.428 111.272C106.844 111.645 107.383 111.832 108.044 111.832C108.578 111.832 109.052 111.763 109.468 111.624C109.884 111.485 110.236 111.347 110.524 111.208L110.652 112.488C110.332 112.637 109.927 112.781 109.436 112.92C108.956 113.048 108.412 113.112 107.804 113.112ZM108.604 105.624C108.231 105.624 107.879 105.699 107.548 105.848C107.228 105.987 106.94 106.184 106.684 106.44C106.439 106.696 106.231 107 106.06 107.352C105.9 107.704 105.788 108.088 105.724 108.504C105.97 108.557 106.215 108.595 106.46 108.616C106.706 108.637 106.983 108.648 107.292 108.648C108.199 108.648 108.908 108.525 109.42 108.28C109.943 108.024 110.204 107.592 110.204 106.984C110.204 106.611 110.055 106.291 109.756 106.024C109.468 105.757 109.084 105.624 108.604 105.624ZM118.326 106.408C118.016 106.195 117.67 106.008 117.286 105.848C116.912 105.688 116.486 105.608 116.006 105.608C115.494 105.608 115.099 105.693 114.822 105.864C114.555 106.035 114.422 106.259 114.422 106.536C114.422 106.664 114.443 106.781 114.486 106.888C114.539 106.995 114.624 107.107 114.742 107.224C114.87 107.331 115.04 107.448 115.254 107.576C115.467 107.704 115.739 107.853 116.07 108.024C116.806 108.397 117.344 108.776 117.686 109.16C118.038 109.533 118.214 110.008 118.214 110.584C118.214 111.011 118.128 111.384 117.958 111.704C117.787 112.013 117.547 112.275 117.238 112.488C116.939 112.691 116.587 112.845 116.182 112.952C115.776 113.059 115.339 113.112 114.87 113.112C114.219 113.112 113.643 113.032 113.142 112.872C112.651 112.701 112.224 112.483 111.862 112.216L112.678 111.032C112.966 111.267 113.302 111.464 113.686 111.624C114.08 111.784 114.518 111.864 114.998 111.864C115.542 111.864 115.963 111.763 116.262 111.56C116.571 111.357 116.726 111.107 116.726 110.808C116.726 110.669 116.699 110.541 116.646 110.424C116.603 110.296 116.518 110.168 116.39 110.04C116.262 109.912 116.086 109.784 115.862 109.656C115.648 109.517 115.376 109.363 115.046 109.192C114.64 108.989 114.304 108.797 114.038 108.616C113.782 108.424 113.574 108.227 113.414 108.024C113.264 107.821 113.158 107.608 113.094 107.384C113.03 107.149 112.998 106.893 112.998 106.616C112.998 106.296 113.072 106.003 113.222 105.736C113.371 105.459 113.579 105.224 113.846 105.032C114.112 104.84 114.432 104.691 114.806 104.584C115.179 104.467 115.59 104.408 116.038 104.408C116.635 104.408 117.168 104.488 117.638 104.648C118.118 104.797 118.539 104.979 118.902 105.192L118.326 106.408Z" fill="#2D2D2D"/>
</svg>
