<svg width="127" height="153" viewBox="0 0 127 153" fill="none" xmlns="http://www.w3.org/2000/svg">
<rect x="0.52002" width="126.48" height="153" rx="63.24" fill="#F0F0F0"/>
<path d="M88.6108 50.9136C88.3198 50.6061 87.9032 50.4302 87.4658 50.4302H85.6749V32.2448C85.6749 31.4465 84.9881 30.7994 84.1409 30.7994H78.7945V25.2504C78.7945 24.4522 78.1077 23.8051 77.2605 23.8051H70.3802C69.533 23.8051 68.8462 24.4522 68.8462 25.2504V34.7121H65.034V26.8083C65.034 26.0101 64.3472 25.363 63.5 25.363H58.1536V20.4453C58.1536 19.6471 57.4668 19 56.6196 19H49.7392C48.8919 19 48.2051 19.6471 48.2051 20.4453V33.0231H42.8588C42.0115 33.0231 41.3247 33.6701 41.3247 34.4684V50.4302H39.534C39.0966 50.4302 38.68 50.6061 38.389 50.9136C38.098 51.2212 37.9601 51.6312 38.0101 52.0406L42.8551 91.7199C42.9442 92.4493 43.5997 93 44.3792 93H82.6211C83.4005 93 84.056 92.4493 84.145 91.7199L88.99 52.0406C89.0397 51.6312 88.9018 51.2212 88.6108 50.9136ZM78.7947 33.6901H82.607V50.4302H78.7947V33.6901ZM71.9143 26.6957H75.7266V50.7808C75.4581 50.9988 75.2694 51.304 75.2119 51.6552L74.0928 58.4877H71.9143V26.6957V26.6957ZM65.034 37.6027H68.8463V58.4875H65.034V37.6027ZM58.1536 28.2536H61.9659V58.4875H58.1536V28.2536ZM51.2732 21.8906H55.0855V58.4875H52.907L51.7879 51.6551C51.7304 51.304 51.5417 50.9986 51.2732 50.7807V21.8906V21.8906ZM44.393 35.9137H48.2053V50.4302H44.393V35.9137ZM51.3265 90.1095L51.9708 84.8315H75.029L75.6733 90.1095H51.3265ZM81.2532 90.1095H78.7617L77.9209 83.2211C77.8318 82.4917 77.1763 81.941 76.3968 81.941H50.603C49.8235 81.941 49.168 82.4917 49.0789 83.2211L48.2381 90.1095H45.7466L43.6819 73.1984H73.1426C73.9899 73.1984 74.6767 72.5514 74.6767 71.7531C74.6767 70.9549 73.9899 70.3078 73.1426 70.3078H43.3291L41.8737 58.3872H44.345L45.4639 65.22C45.5793 65.9249 46.2231 66.4449 46.98 66.4449H80.0198C80.7767 66.4449 81.4205 65.9247 81.5359 65.22L82.6548 58.3872H85.1261L81.2532 90.1095ZM85.479 55.4966H81.3394C80.5825 55.4966 79.9388 56.0168 79.8233 56.7215L78.7043 63.5542H48.2955L47.1765 56.7215C47.061 56.0166 46.4173 55.4966 45.6604 55.4966H41.5208L41.2552 53.321H48.9557L50.075 60.1533C50.1402 60.5513 50.374 60.8905 50.7015 61.1104C50.7046 61.1124 50.7076 61.1144 50.7107 61.1164C50.7168 61.1205 50.7231 61.1245 50.7292 61.1286C50.7342 61.1317 50.7391 61.1348 50.7441 61.138C50.7483 61.1406 50.7526 61.1432 50.7567 61.1458C50.7633 61.1498 50.7699 61.1537 50.7765 61.1576C50.779 61.1591 50.7814 61.1605 50.7839 61.162C50.7917 61.1666 50.7997 61.1711 50.8076 61.1755C50.8089 61.1763 50.8099 61.1768 50.8112 61.1776C50.9727 61.2678 51.1533 61.3306 51.3459 61.3598C51.3467 61.36 51.3476 61.3601 51.3485 61.3603C51.3579 61.3617 51.3673 61.363 51.3768 61.3642C51.3797 61.3646 51.3825 61.3649 51.3854 61.3653C51.3936 61.3663 51.4019 61.3673 51.4102 61.3682C51.4145 61.3686 51.4187 61.3692 51.4229 61.3696C51.4303 61.3704 51.4377 61.3711 51.4452 61.3718C51.4504 61.3722 51.4555 61.3727 51.4607 61.3731C51.4674 61.3737 51.4742 61.3741 51.4809 61.3747C51.4869 61.3751 51.4931 61.3754 51.4992 61.3757C51.5053 61.376 51.5115 61.3764 51.5176 61.3767C51.5253 61.377 51.5329 61.3773 51.5406 61.3776C51.5451 61.3777 51.5497 61.3779 51.5541 61.378C51.5667 61.3783 51.5793 61.3785 51.5918 61.3785H75.4087C75.4213 61.3785 75.4339 61.3783 75.4465 61.378C75.4509 61.3779 75.4555 61.3777 75.46 61.3776C75.4676 61.3773 75.4753 61.3772 75.483 61.3767C75.4891 61.3764 75.4952 61.3761 75.5014 61.3757C75.5075 61.3754 75.5135 61.375 75.5196 61.3747C75.5264 61.3743 75.5331 61.3737 75.5399 61.3731C75.5451 61.3727 75.5502 61.3722 75.5554 61.3718C75.5627 61.3711 75.5703 61.3704 75.5776 61.3696C75.5819 61.3692 75.5861 61.3688 75.5903 61.3682C75.5986 61.3673 75.6069 61.3663 75.6152 61.3653C75.618 61.3649 75.6209 61.3646 75.6238 61.3642C75.6331 61.3629 75.6427 61.3616 75.652 61.3603C75.6529 61.3601 75.6537 61.36 75.6546 61.3598C75.8473 61.3306 76.0279 61.2676 76.1894 61.1776C76.1906 61.177 76.1917 61.1763 76.1929 61.1755C76.2009 61.1711 76.2087 61.1666 76.2167 61.162C76.2192 61.1605 76.2216 61.1591 76.2241 61.1576C76.2307 61.1537 76.2373 61.1497 76.2439 61.1458C76.2482 61.1432 76.2523 61.1406 76.2564 61.138C76.2613 61.1348 76.2664 61.1317 76.2713 61.1286C76.2776 61.1245 76.2837 61.1205 76.2899 61.1164C76.2929 61.1144 76.296 61.1124 76.2991 61.1104C76.6266 60.8905 76.8604 60.5514 76.9256 60.1533L78.0448 53.321H85.7454L85.479 55.4966Z" fill="#323232"/>
<path d="M8.24724 112.328L14.3912 101.72H16.1032L18.5512 112.744L17.0952 113.08L16.4232 109.88H11.2392L9.46324 113.048L8.24724 112.328ZM11.9592 108.6H16.1512L15.0152 103.208L11.9592 108.6ZM26.2006 106.28C25.9233 106.109 25.6299 105.971 25.3206 105.864C25.0219 105.747 24.6859 105.688 24.3126 105.688C23.8646 105.688 23.4593 105.779 23.0966 105.96C22.7339 106.141 22.4246 106.392 22.1686 106.712C21.9126 107.021 21.7153 107.389 21.5766 107.816C21.4379 108.243 21.3686 108.701 21.3686 109.192C21.3686 110.003 21.5713 110.648 21.9766 111.128C22.3819 111.597 22.9366 111.832 23.6406 111.832C24.0459 111.832 24.4033 111.784 24.7126 111.688C25.0219 111.592 25.3046 111.48 25.5606 111.352L25.7366 112.616C25.4699 112.733 25.1446 112.845 24.7606 112.952C24.3873 113.059 23.9339 113.112 23.4006 113.112C22.8779 113.112 22.4033 113.027 21.9766 112.856C21.5499 112.675 21.1819 112.419 20.8726 112.088C20.5633 111.757 20.3233 111.368 20.1526 110.92C19.9819 110.461 19.8966 109.949 19.8966 109.384C19.8966 108.712 19.9979 108.077 20.2006 107.48C20.4139 106.883 20.7179 106.355 21.1126 105.896C21.5073 105.437 21.9819 105.075 22.5366 104.808C23.0913 104.541 23.7206 104.408 24.4246 104.408C24.9259 104.408 25.3686 104.472 25.7526 104.6C26.1366 104.717 26.4833 104.867 26.7926 105.048L26.2006 106.28ZM30.9256 111.832C31.4056 111.832 31.8323 111.741 32.2056 111.56C32.5789 111.379 32.8989 111.128 33.1656 110.808C33.4323 110.488 33.6349 110.115 33.7736 109.688C33.9123 109.261 33.9816 108.797 33.9816 108.296C33.9816 107.933 33.9229 107.592 33.8056 107.272C33.6989 106.952 33.5389 106.675 33.3256 106.44C33.1229 106.205 32.8723 106.024 32.5736 105.896C32.2749 105.757 31.9336 105.688 31.5496 105.688C31.0803 105.688 30.6536 105.779 30.2696 105.96C29.8963 106.141 29.5763 106.392 29.3096 106.712C29.0429 107.032 28.8403 107.411 28.7016 107.848C28.5629 108.275 28.4936 108.733 28.4936 109.224C28.4936 109.587 28.5469 109.928 28.6536 110.248C28.7603 110.568 28.9149 110.845 29.1176 111.08C29.3309 111.315 29.5869 111.501 29.8856 111.64C30.1949 111.768 30.5416 111.832 30.9256 111.832ZM30.8776 113.112C30.2803 113.112 29.7416 113.021 29.2616 112.84C28.7923 112.648 28.3923 112.387 28.0616 112.056C27.7309 111.725 27.4749 111.331 27.2936 110.872C27.1123 110.403 27.0216 109.896 27.0216 109.352C27.0216 108.659 27.1283 108.013 27.3416 107.416C27.5549 106.808 27.8589 106.285 28.2536 105.848C28.6589 105.4 29.1443 105.048 29.7096 104.792C30.2749 104.536 30.9043 104.408 31.5976 104.408C32.1843 104.408 32.7176 104.504 33.1976 104.696C33.6776 104.877 34.0829 105.133 34.4136 105.464C34.7443 105.795 35.0003 106.195 35.1816 106.664C35.3629 107.123 35.4536 107.624 35.4536 108.168C35.4536 108.861 35.3469 109.512 35.1336 110.12C34.9203 110.717 34.6109 111.24 34.2056 111.688C33.8109 112.125 33.3309 112.472 32.7656 112.728C32.2003 112.984 31.5709 113.112 30.8776 113.112ZM47.079 105.672C46.8123 105.672 46.5243 105.747 46.215 105.896C45.9057 106.045 45.607 106.275 45.319 106.584C45.0417 106.893 44.7857 107.288 44.551 107.768C44.327 108.248 44.1563 108.819 44.039 109.48L43.431 112.92H41.991L42.903 107.944C42.9563 107.688 42.9883 107.501 42.999 107.384C43.0097 107.267 43.015 107.149 43.015 107.032C43.015 106.616 42.8923 106.285 42.647 106.04C42.4123 105.795 42.103 105.672 41.719 105.672C41.4417 105.672 41.1483 105.752 40.839 105.912C40.5297 106.061 40.231 106.296 39.943 106.616C39.655 106.936 39.3937 107.347 39.159 107.848C38.935 108.339 38.7643 108.925 38.647 109.608L38.071 112.92H36.631L38.087 104.6H39.479L39.127 106.52C39.447 105.88 39.879 105.368 40.423 104.984C40.967 104.6 41.5377 104.408 42.135 104.408C42.4657 104.408 42.7643 104.461 43.031 104.568C43.2977 104.675 43.527 104.824 43.719 105.016C43.9217 105.197 44.0817 105.421 44.199 105.688C44.3163 105.944 44.391 106.221 44.423 106.52C44.7857 105.848 45.2283 105.331 45.751 104.968C46.2843 104.595 46.8603 104.408 47.479 104.408C47.831 104.408 48.151 104.467 48.439 104.584C48.727 104.701 48.9723 104.867 49.175 105.08C49.3777 105.283 49.5323 105.523 49.639 105.8C49.7563 106.077 49.815 106.376 49.815 106.696C49.815 106.973 49.783 107.309 49.719 107.704L48.791 112.92H47.351L48.263 107.944C48.3163 107.688 48.3483 107.501 48.359 107.384C48.3697 107.267 48.375 107.149 48.375 107.032C48.375 106.616 48.2523 106.285 48.007 106.04C47.7723 105.795 47.463 105.672 47.079 105.672ZM52.2004 104.6C53.3097 104.6 53.8644 105.08 53.8644 106.04V106.376C54.1737 105.8 54.5684 105.331 55.0484 104.968C55.539 104.595 56.115 104.408 56.7764 104.408C57.203 104.408 57.5924 104.493 57.9444 104.664C58.2964 104.835 58.595 105.075 58.8404 105.384C59.0857 105.683 59.2724 106.045 59.4004 106.472C59.539 106.888 59.6084 107.352 59.6084 107.864C59.6084 108.653 59.491 109.373 59.2564 110.024C59.0217 110.664 58.7124 111.213 58.3284 111.672C57.9444 112.131 57.5017 112.488 57.0004 112.744C56.5097 112.989 56.003 113.112 55.4804 113.112C54.9684 113.112 54.4884 112.984 54.0404 112.728C53.603 112.472 53.2617 112.157 53.0164 111.784L52.2004 116.44H50.7604L52.4244 106.92C52.4564 106.749 52.4724 106.6 52.4724 106.472C52.4724 105.971 52.211 105.72 51.6884 105.72L52.2004 104.6ZM55.3524 111.832C55.7257 111.832 56.0777 111.741 56.4084 111.56C56.7497 111.368 57.0484 111.107 57.3044 110.776C57.5604 110.435 57.763 110.029 57.9124 109.56C58.0617 109.091 58.1364 108.573 58.1364 108.008C58.1364 107.272 57.971 106.696 57.6404 106.28C57.3097 105.864 56.8777 105.656 56.3444 105.656C56.0244 105.656 55.7097 105.736 55.4004 105.896C55.1017 106.045 54.8297 106.259 54.5844 106.536C54.339 106.813 54.1204 107.155 53.9284 107.56C53.747 107.955 53.6137 108.392 53.5284 108.872L53.2404 110.488C53.475 110.925 53.7737 111.261 54.1364 111.496C54.5097 111.72 54.915 111.832 55.3524 111.832ZM60.8654 109.64C60.8654 108.872 60.9934 108.168 61.2494 107.528C61.516 106.877 61.884 106.323 62.3534 105.864C62.8227 105.405 63.3827 105.048 64.0334 104.792C64.684 104.536 65.3934 104.408 66.1614 104.408C66.7907 104.408 67.34 104.472 67.8094 104.6C68.2894 104.728 68.684 104.856 68.9934 104.984L67.9854 110.664C67.9747 110.717 67.964 110.781 67.9534 110.856C67.9534 110.92 67.9534 110.989 67.9534 111.064C67.9534 111.363 68.0387 111.576 68.2094 111.704C68.38 111.821 68.604 111.88 68.8814 111.88L68.3854 113C67.8094 113 67.3667 112.861 67.0574 112.584C66.7587 112.307 66.6094 111.864 66.6094 111.256C66.3107 111.768 65.932 112.205 65.4734 112.568C65.0254 112.931 64.4974 113.112 63.8894 113.112C63.4947 113.112 63.116 113.032 62.7534 112.872C62.3907 112.712 62.0654 112.483 61.7774 112.184C61.5 111.885 61.276 111.523 61.1054 111.096C60.9454 110.659 60.8654 110.173 60.8654 109.64ZM67.4094 105.832C67.2067 105.768 66.9934 105.72 66.7694 105.688C66.556 105.645 66.2947 105.624 65.9854 105.624C65.4307 105.624 64.9294 105.72 64.4814 105.912C64.0334 106.104 63.6494 106.371 63.3294 106.712C63.0094 107.053 62.764 107.459 62.5934 107.928C62.4227 108.397 62.3374 108.909 62.3374 109.464C62.3374 109.848 62.3907 110.189 62.4974 110.488C62.6147 110.776 62.764 111.021 62.9454 111.224C63.1267 111.427 63.3294 111.581 63.5534 111.688C63.788 111.784 64.028 111.832 64.2734 111.832C64.5934 111.832 64.8974 111.747 65.1854 111.576C65.484 111.405 65.7507 111.165 65.9854 110.856C66.22 110.536 66.4227 110.163 66.5934 109.736C66.764 109.299 66.892 108.824 66.9774 108.312L67.4094 105.832ZM75.5661 105.672C75.2888 105.672 74.9848 105.752 74.6541 105.912C74.3341 106.061 74.0194 106.296 73.7101 106.616C73.4114 106.936 73.1394 107.347 72.8941 107.848C72.6488 108.339 72.4674 108.925 72.3501 109.608L71.7741 112.92H70.3341L71.7901 104.6H73.1821L72.8301 106.52C73.1608 105.88 73.6034 105.368 74.1581 104.984C74.7128 104.6 75.3048 104.408 75.9341 104.408C76.2968 104.408 76.6274 104.467 76.9261 104.584C77.2248 104.701 77.4754 104.867 77.6781 105.08C77.8914 105.283 78.0514 105.523 78.1581 105.8C78.2754 106.077 78.3341 106.376 78.3341 106.696C78.3341 106.973 78.3021 107.309 78.2381 107.704L77.3261 112.92H75.8861L76.7661 107.944C76.8194 107.688 76.8514 107.501 76.8621 107.384C76.8728 107.267 76.8781 107.149 76.8781 107.032C76.8781 106.616 76.7554 106.285 76.5101 106.04C76.2754 105.795 75.9608 105.672 75.5661 105.672ZM78.3181 102.424C78.0941 102.616 77.8541 102.792 77.5981 102.952C77.3528 103.101 77.0648 103.176 76.7341 103.176C76.5208 103.176 76.3341 103.149 76.1741 103.096C76.0248 103.032 75.8808 102.968 75.7421 102.904C75.6034 102.829 75.4648 102.765 75.3261 102.712C75.1874 102.648 75.0274 102.616 74.8461 102.616C74.6008 102.616 74.3714 102.675 74.1581 102.792C73.9554 102.899 73.7581 103.032 73.5661 103.192L73.1821 102.2C73.4274 101.965 73.7048 101.768 74.0141 101.608C74.3341 101.448 74.6488 101.368 74.9581 101.368C75.1608 101.368 75.3368 101.4 75.4861 101.464C75.6461 101.517 75.7901 101.576 75.9181 101.64C76.0568 101.704 76.1954 101.768 76.3341 101.832C76.4728 101.885 76.6381 101.912 76.8301 101.912C77.0434 101.912 77.2408 101.864 77.4221 101.768C77.6034 101.661 77.7741 101.544 77.9341 101.416L78.3181 102.424ZM79.756 109.64C79.756 108.872 79.884 108.168 80.14 107.528C80.4067 106.877 80.7747 106.323 81.244 105.864C81.7133 105.405 82.2733 105.048 82.924 104.792C83.5747 104.536 84.284 104.408 85.052 104.408C85.6813 104.408 86.2307 104.472 86.7 104.6C87.18 104.728 87.5747 104.856 87.884 104.984L86.876 110.664C86.8653 110.717 86.8547 110.781 86.844 110.856C86.844 110.92 86.844 110.989 86.844 111.064C86.844 111.363 86.9293 111.576 87.1 111.704C87.2707 111.821 87.4947 111.88 87.772 111.88L87.276 113C86.7 113 86.2573 112.861 85.948 112.584C85.6493 112.307 85.5 111.864 85.5 111.256C85.2013 111.768 84.8227 112.205 84.364 112.568C83.916 112.931 83.388 113.112 82.78 113.112C82.3853 113.112 82.0067 113.032 81.644 112.872C81.2813 112.712 80.956 112.483 80.668 112.184C80.3907 111.885 80.1667 111.523 79.996 111.096C79.836 110.659 79.756 110.173 79.756 109.64ZM86.3 105.832C86.0973 105.768 85.884 105.72 85.66 105.688C85.4467 105.645 85.1853 105.624 84.876 105.624C84.3213 105.624 83.82 105.72 83.372 105.912C82.924 106.104 82.54 106.371 82.22 106.712C81.9 107.053 81.6547 107.459 81.484 107.928C81.3133 108.397 81.228 108.909 81.228 109.464C81.228 109.848 81.2813 110.189 81.388 110.488C81.5053 110.776 81.6547 111.021 81.836 111.224C82.0173 111.427 82.22 111.581 82.444 111.688C82.6787 111.784 82.9187 111.832 83.164 111.832C83.484 111.832 83.788 111.747 84.076 111.576C84.3747 111.405 84.6413 111.165 84.876 110.856C85.1107 110.536 85.3133 110.163 85.484 109.736C85.6547 109.299 85.7827 108.824 85.868 108.312L86.3 105.832ZM94.4567 105.672C94.1794 105.672 93.8754 105.752 93.5447 105.912C93.2247 106.061 92.9101 106.296 92.6007 106.616C92.3021 106.936 92.0301 107.347 91.7847 107.848C91.5394 108.339 91.3581 108.925 91.2407 109.608L90.6647 112.92H89.2247L90.6807 104.6H92.0727L91.7207 106.52C92.0514 105.88 92.4941 105.368 93.0487 104.984C93.6034 104.6 94.1954 104.408 94.8247 104.408C95.1874 104.408 95.5181 104.467 95.8167 104.584C96.1154 104.701 96.3661 104.867 96.5687 105.08C96.7821 105.283 96.9421 105.523 97.0487 105.8C97.1661 106.077 97.2247 106.376 97.2247 106.696C97.2247 106.973 97.1927 107.309 97.1287 107.704L96.2167 112.92H94.7767L95.6567 107.944C95.7101 107.688 95.7421 107.501 95.7527 107.384C95.7634 107.267 95.7687 107.149 95.7687 107.032C95.7687 106.616 95.6461 106.285 95.4007 106.04C95.1661 105.795 94.8514 105.672 94.4567 105.672ZM98.9346 104.904H100.407L101.175 102.28H102.279L101.815 104.904H104.119L103.911 106.152H101.591L100.919 110.04C100.876 110.253 100.855 110.456 100.855 110.648C100.855 111.021 100.961 111.315 101.175 111.528C101.399 111.731 101.697 111.832 102.071 111.832C102.38 111.832 102.636 111.789 102.839 111.704C103.052 111.608 103.249 111.512 103.431 111.416L103.607 112.664C103.404 112.781 103.148 112.883 102.839 112.968C102.54 113.064 102.204 113.112 101.831 113.112C101.532 113.112 101.239 113.064 100.951 112.968C100.663 112.883 100.407 112.749 100.183 112.568C99.9586 112.376 99.7773 112.131 99.6386 111.832C99.4999 111.533 99.4306 111.176 99.4306 110.76C99.4306 110.643 99.4359 110.525 99.4466 110.408C99.4573 110.28 99.4733 110.136 99.4946 109.976L100.151 106.152H98.7266L98.9346 104.904ZM108.324 113.112C107.791 113.112 107.306 113.027 106.868 112.856C106.431 112.675 106.052 112.424 105.732 112.104C105.423 111.773 105.178 111.373 104.996 110.904C104.826 110.435 104.74 109.907 104.74 109.32C104.74 108.659 104.847 108.029 105.06 107.432C105.274 106.835 105.572 106.312 105.956 105.864C106.351 105.416 106.826 105.064 107.38 104.808C107.935 104.541 108.554 104.408 109.236 104.408C109.695 104.408 110.106 104.477 110.468 104.616C110.831 104.755 111.135 104.936 111.38 105.16C111.636 105.384 111.828 105.645 111.956 105.944C112.095 106.243 112.164 106.552 112.164 106.872C112.164 107.469 112.02 107.955 111.732 108.328C111.455 108.701 111.103 109 110.676 109.224C110.25 109.437 109.78 109.587 109.268 109.672C108.756 109.747 108.271 109.784 107.812 109.784C107.524 109.784 107.236 109.773 106.948 109.752C106.671 109.72 106.426 109.688 106.212 109.656C106.298 110.36 106.543 110.899 106.948 111.272C107.364 111.645 107.903 111.832 108.564 111.832C109.098 111.832 109.572 111.763 109.988 111.624C110.404 111.485 110.756 111.347 111.044 111.208L111.172 112.488C110.852 112.637 110.447 112.781 109.956 112.92C109.476 113.048 108.932 113.112 108.324 113.112ZM109.124 105.624C108.751 105.624 108.399 105.699 108.068 105.848C107.748 105.987 107.46 106.184 107.204 106.44C106.959 106.696 106.751 107 106.58 107.352C106.42 107.704 106.308 108.088 106.244 108.504C106.49 108.557 106.735 108.595 106.98 108.616C107.226 108.637 107.503 108.648 107.812 108.648C108.719 108.648 109.428 108.525 109.94 108.28C110.463 108.024 110.724 107.592 110.724 106.984C110.724 106.611 110.575 106.291 110.276 106.024C109.988 105.757 109.604 105.624 109.124 105.624ZM118.846 106.408C118.536 106.195 118.19 106.008 117.806 105.848C117.432 105.688 117.006 105.608 116.526 105.608C116.014 105.608 115.619 105.693 115.342 105.864C115.075 106.035 114.942 106.259 114.942 106.536C114.942 106.664 114.963 106.781 115.006 106.888C115.059 106.995 115.144 107.107 115.262 107.224C115.39 107.331 115.56 107.448 115.774 107.576C115.987 107.704 116.259 107.853 116.59 108.024C117.326 108.397 117.864 108.776 118.206 109.16C118.558 109.533 118.734 110.008 118.734 110.584C118.734 111.011 118.648 111.384 118.478 111.704C118.307 112.013 118.067 112.275 117.758 112.488C117.459 112.691 117.107 112.845 116.702 112.952C116.296 113.059 115.859 113.112 115.39 113.112C114.739 113.112 114.163 113.032 113.662 112.872C113.171 112.701 112.744 112.483 112.382 112.216L113.198 111.032C113.486 111.267 113.822 111.464 114.206 111.624C114.6 111.784 115.038 111.864 115.518 111.864C116.062 111.864 116.483 111.763 116.782 111.56C117.091 111.357 117.246 111.107 117.246 110.808C117.246 110.669 117.219 110.541 117.166 110.424C117.123 110.296 117.038 110.168 116.91 110.04C116.782 109.912 116.606 109.784 116.382 109.656C116.168 109.517 115.896 109.363 115.566 109.192C115.16 108.989 114.824 108.797 114.558 108.616C114.302 108.424 114.094 108.227 113.934 108.024C113.784 107.821 113.678 107.608 113.614 107.384C113.55 107.149 113.518 106.893 113.518 106.616C113.518 106.296 113.592 106.003 113.742 105.736C113.891 105.459 114.099 105.224 114.366 105.032C114.632 104.84 114.952 104.691 115.326 104.584C115.699 104.467 116.11 104.408 116.558 104.408C117.155 104.408 117.688 104.488 118.158 104.648C118.638 104.797 119.059 104.979 119.422 105.192L118.846 106.408Z" fill="#2D2D2D"/>
</svg>
