<svg width="127" height="153" viewBox="0 0 127 153" fill="none" xmlns="http://www.w3.org/2000/svg">
<path d="M0.259766 63.24C0.259766 28.3135 28.5733 0 63.4998 0C98.4262 0 126.74 28.3135 126.74 63.24V89.76C126.74 124.686 98.4262 153 63.4998 153C28.5733 153 0.259766 124.686 0.259766 89.76V63.24Z" fill="#F0F0F0"/>
<g clip-path="url(#clip0)">
<path d="M49.7383 93.0069C49.5251 92.8843 49.3018 92.7801 49.0708 92.6953C47.3416 92.2099 45.7213 90.3265 45.5847 88.5515C45.2648 84.4198 44.9812 80.288 44.6665 76.1562C44.2982 71.3135 43.8884 66.4741 43.5408 61.6314C43.195 56.8695 42.9148 52.1042 42.5949 47.3423C42.5361 46.4816 42.3425 45.8136 41.4018 45.3178C39.8455 44.5018 39.0172 43.0797 39.0103 41.2652C39.0103 40.036 39.0103 38.8057 39.0103 37.5742C39.0189 35.7975 39.8109 34.3187 41.3412 33.5767C42.5396 32.9965 42.965 32.1633 43.1517 31.0529C43.6601 28.0298 46.5202 25.9966 49.5498 26.0104C58.2322 26.0517 66.9163 26.0328 75.6004 26.0207C78.585 26.0207 81.3068 28.0573 81.8567 31.0356C82.0504 32.0824 82.3443 32.981 83.5721 33.5354C85.1681 34.2584 85.9549 35.7734 85.993 37.5638C86.0154 38.7689 86.0033 39.974 85.993 41.1705C85.993 43.0815 85.1128 44.5345 83.4527 45.409C82.685 45.8136 82.4654 46.3473 82.4152 47.0841C82.3011 48.9382 82.2146 50.7958 82.0815 52.6499C81.8204 56.2979 81.5247 59.9442 81.2636 63.5922C81.1252 65.5324 81.0474 67.4761 80.9039 69.4146C80.6411 72.9748 80.3384 76.5315 80.0739 80.0883C79.9269 82.0561 79.8612 84.0307 79.6865 85.995C79.5828 87.1777 79.4738 88.3897 79.1297 89.5173C78.611 91.2389 77.3521 92.3011 75.5866 92.747C75.4655 92.778 75.3721 92.9191 75.2667 93.0069H49.7383ZM46.2799 52.8582C46.2799 53.1371 46.2678 53.3093 46.2799 53.478C46.5496 56.8643 46.8505 60.2507 47.0857 63.6353C47.4315 68.6267 47.7491 73.6192 48.0385 78.6129C48.0817 79.3962 48.3255 79.6183 49.1106 79.6166C58.0541 79.589 66.9981 79.589 75.9428 79.6166C76.6898 79.6166 76.9319 79.4083 76.9647 78.6628C77.0789 76.0633 77.2466 73.4654 77.4282 70.8693C77.6668 67.4778 77.9469 64.0898 78.1925 60.7C78.3619 58.4206 78.5251 56.1413 78.6819 53.8619C78.7043 53.5348 78.6819 53.206 78.6819 52.8531L46.2799 52.8582ZM62.5915 36.0953C56.4966 36.0953 50.4012 36.0953 44.3051 36.0953C42.9408 36.0953 42.3182 36.7065 42.3113 38.0355C42.3113 39.0375 42.2473 40.0446 42.3407 41.038C42.384 41.4925 42.6243 42.0709 42.9719 42.3171C43.3921 42.6132 44.0215 42.7268 44.561 42.7285C56.5226 42.7492 68.483 42.7544 80.4422 42.744C80.6428 42.744 80.8451 42.744 81.0457 42.7354C81.2656 42.7323 81.4827 42.6859 81.6845 42.599C81.8863 42.512 82.0689 42.3862 82.2217 42.2288C82.3745 42.0714 82.4946 41.8854 82.575 41.6817C82.6554 41.4779 82.6945 41.2603 82.6902 41.0414C82.7075 40.0687 82.6245 39.0874 82.7161 38.1147C82.8372 36.8494 81.8809 36.0489 80.6186 36.0575C74.6078 36.128 68.5988 36.0953 62.5898 36.0953H62.5915ZM76.6103 82.8979H53.6014C52.1056 82.8979 50.6115 82.9065 49.1158 82.8979C48.6783 82.8979 48.3999 82.953 48.4552 83.5056C48.5987 84.9552 48.68 86.4116 48.827 87.8629C48.8622 88.3643 49.0883 88.8334 49.4592 89.1745C49.83 89.5156 50.3177 89.7028 50.8225 89.6981C58.6143 89.7084 66.4067 89.7084 74.1997 89.6981C75.1007 89.6981 75.9013 89.1816 76.0413 88.4224C76.3682 86.6371 76.4304 84.8123 76.6103 82.8979ZM62.5016 46.0357C57.2137 46.0357 51.9257 46.0357 46.6361 46.0271C46.0499 46.0271 45.7715 46.1665 45.8545 46.8035C45.9287 47.3424 45.9496 47.8874 45.9167 48.4304C45.8545 49.3015 46.2072 49.5305 47.0684 49.527C57.3584 49.4972 67.6483 49.4909 77.9383 49.5081C78.0818 49.5081 78.2271 49.4995 78.3689 49.5081C78.8427 49.5459 79.0519 49.3359 79.0606 48.8608C79.0727 48.1721 79.0744 47.4835 79.1505 46.8035C79.2231 46.1631 78.9533 46.0236 78.3689 46.0253C73.0827 46.0426 67.7913 46.0357 62.5016 46.0357ZM62.4878 32.8054H78.0127C78.4415 32.8054 78.8392 32.8054 78.7579 32.1736C78.679 31.3731 78.2979 30.6322 77.6917 30.1005C77.0854 29.5688 76.2991 29.2859 75.4915 29.3089H49.5308C47.9243 29.3089 46.8436 30.1215 46.4078 31.652C46.0948 32.7486 46.1312 32.7968 47.307 32.7985L62.4878 32.8054Z" fill="#323232"/>
<path d="M52.4604 66.1504C52.3929 60.8136 56.7367 56.1653 62.4898 56.1653C68.2429 56.1653 72.5988 60.8136 72.566 66.2985C72.5348 71.4632 68.2844 76.2561 62.4708 76.2406C56.6952 76.2251 52.3082 71.4288 52.4604 66.1504ZM55.7718 66.1918C55.713 69.8157 58.7513 72.9317 62.5158 72.9179C66.2803 72.9042 69.2597 69.7864 69.2251 66.2417C69.1905 62.2029 66.1125 59.4914 62.521 59.4673C59.0556 59.4467 55.8496 62.0479 55.7718 66.1969V66.1918Z" fill="#323232"/>
</g>
<path d="M39.6915 101.928C40.1822 101.832 40.6568 101.757 41.1155 101.704C41.5742 101.64 42.0968 101.608 42.6835 101.608C43.3235 101.608 43.8835 101.688 44.3635 101.848C44.8435 101.997 45.2382 102.2 45.5475 102.456C45.8675 102.712 46.1022 103.011 46.2515 103.352C46.4115 103.683 46.4915 104.024 46.4915 104.376C46.4915 105.112 46.2888 105.704 45.8835 106.152C45.4888 106.6 44.8915 106.941 44.0915 107.176C44.3902 107.293 44.6622 107.432 44.9075 107.592C45.1635 107.741 45.3822 107.923 45.5635 108.136C45.7448 108.349 45.8835 108.589 45.9795 108.856C46.0862 109.123 46.1395 109.421 46.1395 109.752C46.1395 110.328 46.0062 110.835 45.7395 111.272C45.4728 111.699 45.1102 112.056 44.6515 112.344C44.1928 112.632 43.6648 112.845 43.0675 112.984C42.4702 113.123 41.8462 113.192 41.1955 113.192C40.4275 113.192 39.7608 113.133 39.1955 113.016C38.6408 112.909 38.1768 112.797 37.8035 112.68L39.6915 101.928ZM40.1715 107.816L39.4995 111.704C40.0648 111.853 40.6675 111.928 41.3075 111.928C42.3635 111.928 43.1742 111.731 43.7395 111.336C44.3048 110.931 44.5875 110.419 44.5875 109.8C44.5875 109.533 44.5288 109.283 44.4115 109.048C44.3048 108.803 44.1288 108.589 43.8835 108.408C43.6382 108.227 43.3235 108.083 42.9395 107.976C42.5662 107.869 42.1075 107.816 41.5635 107.816H40.1715ZM42.6195 102.808C42.2888 102.808 41.9955 102.819 41.7395 102.84C41.4835 102.861 41.2488 102.893 41.0355 102.936L40.3795 106.632H41.9475C42.4595 106.632 42.9075 106.579 43.2915 106.472C43.6755 106.355 43.9955 106.205 44.2515 106.024C44.5075 105.832 44.6942 105.613 44.8115 105.368C44.9395 105.123 45.0035 104.861 45.0035 104.584C45.0035 104.083 44.8008 103.661 44.3955 103.32C44.0008 102.979 43.4088 102.808 42.6195 102.808ZM51.1825 113.192C50.6492 113.192 50.1638 113.107 49.7265 112.936C49.2892 112.755 48.9105 112.504 48.5905 112.184C48.2812 111.853 48.0358 111.453 47.8545 110.984C47.6838 110.515 47.5985 109.987 47.5985 109.4C47.5985 108.739 47.7052 108.109 47.9185 107.512C48.1318 106.915 48.4305 106.392 48.8145 105.944C49.2092 105.496 49.6838 105.144 50.2385 104.888C50.7932 104.621 51.4118 104.488 52.0945 104.488C52.5532 104.488 52.9638 104.557 53.3265 104.696C53.6892 104.835 53.9932 105.016 54.2385 105.24C54.4945 105.464 54.6865 105.725 54.8145 106.024C54.9532 106.323 55.0225 106.632 55.0225 106.952C55.0225 107.549 54.8785 108.035 54.5905 108.408C54.3132 108.781 53.9612 109.08 53.5345 109.304C53.1078 109.517 52.6385 109.667 52.1265 109.752C51.6145 109.827 51.1292 109.864 50.6705 109.864C50.3825 109.864 50.0945 109.853 49.8065 109.832C49.5292 109.8 49.2838 109.768 49.0705 109.736C49.1558 110.44 49.4012 110.979 49.8065 111.352C50.2225 111.725 50.7612 111.912 51.4225 111.912C51.9558 111.912 52.4305 111.843 52.8465 111.704C53.2625 111.565 53.6145 111.427 53.9025 111.288L54.0305 112.568C53.7105 112.717 53.3052 112.861 52.8145 113C52.3345 113.128 51.7905 113.192 51.1825 113.192ZM51.9825 105.704C51.6092 105.704 51.2572 105.779 50.9265 105.928C50.6065 106.067 50.3185 106.264 50.0625 106.52C49.8172 106.776 49.6092 107.08 49.4385 107.432C49.2785 107.784 49.1665 108.168 49.1025 108.584C49.3478 108.637 49.5932 108.675 49.8385 108.696C50.0838 108.717 50.3612 108.728 50.6705 108.728C51.5772 108.728 52.2865 108.605 52.7985 108.36C53.3212 108.104 53.5825 107.672 53.5825 107.064C53.5825 106.691 53.4332 106.371 53.1345 106.104C52.8465 105.837 52.4625 105.704 51.9825 105.704ZM63.9438 107.56C63.9438 108.36 63.7998 109.101 63.5118 109.784C63.2344 110.467 62.8451 111.064 62.3438 111.576C61.8424 112.077 61.2451 112.472 60.5518 112.76C59.8584 113.048 59.1011 113.192 58.2798 113.192C57.7784 113.192 57.3198 113.144 56.9038 113.048C56.4984 112.963 56.1571 112.851 55.8798 112.712L57.9118 101.16H59.3518L58.4398 106.36C58.7491 105.784 59.1438 105.331 59.6238 105C60.1144 104.659 60.6638 104.488 61.2718 104.488C61.6558 104.488 62.0078 104.563 62.3278 104.712C62.6584 104.861 62.9411 105.075 63.1758 105.352C63.4211 105.619 63.6078 105.939 63.7358 106.312C63.8744 106.685 63.9438 107.101 63.9438 107.56ZM60.9038 105.736C60.6158 105.736 60.3171 105.811 60.0078 105.96C59.6984 106.099 59.4051 106.339 59.1278 106.68C58.8504 107.011 58.5944 107.448 58.3598 107.992C58.1251 108.536 57.9384 109.208 57.7998 110.008L57.4798 111.784C57.6504 111.827 57.8264 111.859 58.0078 111.88C58.1998 111.901 58.4024 111.912 58.6158 111.912C59.1598 111.912 59.6664 111.805 60.1358 111.592C60.6158 111.379 61.0264 111.085 61.3678 110.712C61.7091 110.339 61.9758 109.901 62.1678 109.4C62.3704 108.888 62.4718 108.339 62.4718 107.752C62.4718 107.133 62.3278 106.643 62.0398 106.28C61.7518 105.917 61.3731 105.736 60.9038 105.736ZM66.4916 113H65.0516L66.5076 104.68H67.9476L66.4916 113ZM67.5636 103.256C67.265 103.256 67.0356 103.171 66.8756 103C66.7263 102.819 66.6516 102.611 66.6516 102.376C66.6516 102.035 66.7583 101.763 66.9716 101.56C67.185 101.347 67.4516 101.24 67.7716 101.24C68.0703 101.24 68.2943 101.331 68.4436 101.512C68.6036 101.683 68.6836 101.885 68.6836 102.12C68.6836 102.461 68.577 102.739 68.3636 102.952C68.1503 103.155 67.8836 103.256 67.5636 103.256ZM76.8418 113.08C76.2658 113.08 75.8231 112.941 75.5138 112.664C75.2151 112.376 75.0658 111.928 75.0658 111.32C74.7564 111.832 74.3671 112.275 73.8978 112.648C73.4284 113.011 72.8844 113.192 72.2658 113.192C71.8604 113.192 71.4711 113.112 71.0978 112.952C70.7351 112.792 70.4098 112.563 70.1218 112.264C69.8444 111.965 69.6204 111.603 69.4498 111.176C69.2898 110.739 69.2098 110.253 69.2098 109.72C69.2098 108.909 69.3324 108.179 69.5778 107.528C69.8338 106.877 70.1591 106.328 70.5538 105.88C70.9591 105.432 71.4124 105.091 71.9138 104.856C72.4151 104.611 72.9218 104.488 73.4338 104.488C74.0098 104.488 74.5004 104.627 74.9058 104.904C75.3111 105.181 75.6258 105.523 75.8498 105.928L76.6978 101.16H78.1378L76.4418 110.744C76.4311 110.797 76.4204 110.861 76.4098 110.936C76.4098 111 76.4098 111.069 76.4098 111.144C76.4098 111.443 76.4951 111.656 76.6658 111.784C76.8364 111.901 77.0604 111.96 77.3378 111.96L76.8418 113.08ZM72.6498 111.912C72.9484 111.912 73.2418 111.843 73.5298 111.704C73.8178 111.555 74.0791 111.347 74.3138 111.08C74.5591 110.803 74.7671 110.472 74.9378 110.088C75.1191 109.704 75.2524 109.277 75.3378 108.808L75.6258 107.16C75.4124 106.712 75.1244 106.365 74.7618 106.12C74.3991 105.864 73.9991 105.736 73.5618 105.736C73.1884 105.736 72.8258 105.821 72.4738 105.992C72.1324 106.163 71.8284 106.413 71.5618 106.744C71.2951 107.064 71.0818 107.459 70.9218 107.928C70.7618 108.397 70.6818 108.925 70.6818 109.512C70.6818 109.907 70.7351 110.253 70.8418 110.552C70.9591 110.851 71.1084 111.101 71.2898 111.304C71.4711 111.507 71.6791 111.661 71.9138 111.768C72.1484 111.864 72.3938 111.912 72.6498 111.912ZM78.7704 109.72C78.7704 108.952 78.8984 108.248 79.1544 107.608C79.421 106.957 79.789 106.403 80.2584 105.944C80.7277 105.485 81.2877 105.128 81.9384 104.872C82.589 104.616 83.2984 104.488 84.0664 104.488C84.6957 104.488 85.245 104.552 85.7144 104.68C86.1944 104.808 86.589 104.936 86.8984 105.064L85.8904 110.744C85.8797 110.797 85.869 110.861 85.8584 110.936C85.8584 111 85.8584 111.069 85.8584 111.144C85.8584 111.443 85.9437 111.656 86.1144 111.784C86.285 111.901 86.509 111.96 86.7864 111.96L86.2904 113.08C85.7144 113.08 85.2717 112.941 84.9624 112.664C84.6637 112.387 84.5144 111.944 84.5144 111.336C84.2157 111.848 83.837 112.285 83.3784 112.648C82.9304 113.011 82.4024 113.192 81.7944 113.192C81.3997 113.192 81.021 113.112 80.6584 112.952C80.2957 112.792 79.9704 112.563 79.6824 112.264C79.405 111.965 79.181 111.603 79.0104 111.176C78.8504 110.739 78.7704 110.253 78.7704 109.72ZM85.3144 105.912C85.1117 105.848 84.8984 105.8 84.6744 105.768C84.461 105.725 84.1997 105.704 83.8904 105.704C83.3357 105.704 82.8344 105.8 82.3864 105.992C81.9384 106.184 81.5544 106.451 81.2344 106.792C80.9144 107.133 80.669 107.539 80.4984 108.008C80.3277 108.477 80.2424 108.989 80.2424 109.544C80.2424 109.928 80.2957 110.269 80.4024 110.568C80.5197 110.856 80.669 111.101 80.8504 111.304C81.0317 111.507 81.2344 111.661 81.4584 111.768C81.693 111.864 81.933 111.912 82.1784 111.912C82.4984 111.912 82.8024 111.827 83.0904 111.656C83.389 111.485 83.6557 111.245 83.8904 110.936C84.125 110.616 84.3277 110.243 84.4984 109.816C84.669 109.379 84.797 108.904 84.8824 108.392L85.3144 105.912ZM94.0631 106.488C93.7538 106.275 93.4071 106.088 93.0231 105.928C92.6498 105.768 92.2231 105.688 91.7431 105.688C91.2311 105.688 90.8365 105.773 90.5591 105.944C90.2925 106.115 90.1591 106.339 90.1591 106.616C90.1591 106.744 90.1805 106.861 90.2231 106.968C90.2765 107.075 90.3618 107.187 90.4791 107.304C90.6071 107.411 90.7778 107.528 90.9911 107.656C91.2045 107.784 91.4765 107.933 91.8071 108.104C92.5431 108.477 93.0818 108.856 93.4231 109.24C93.7751 109.613 93.9511 110.088 93.9511 110.664C93.9511 111.091 93.8658 111.464 93.6951 111.784C93.5245 112.093 93.2845 112.355 92.9751 112.568C92.6765 112.771 92.3245 112.925 91.9191 113.032C91.5138 113.139 91.0765 113.192 90.6071 113.192C89.9565 113.192 89.3805 113.112 88.8791 112.952C88.3885 112.781 87.9618 112.563 87.5991 112.296L88.4151 111.112C88.7031 111.347 89.0391 111.544 89.4231 111.704C89.8178 111.864 90.2551 111.944 90.7351 111.944C91.2791 111.944 91.7005 111.843 91.9991 111.64C92.3085 111.437 92.4631 111.187 92.4631 110.888C92.4631 110.749 92.4365 110.621 92.3831 110.504C92.3405 110.376 92.2551 110.248 92.1271 110.12C91.9991 109.992 91.8231 109.864 91.5991 109.736C91.3858 109.597 91.1138 109.443 90.7831 109.272C90.3778 109.069 90.0418 108.877 89.7751 108.696C89.5191 108.504 89.3111 108.307 89.1511 108.104C89.0018 107.901 88.8951 107.688 88.8311 107.464C88.7671 107.229 88.7351 106.973 88.7351 106.696C88.7351 106.376 88.8098 106.083 88.9591 105.816C89.1085 105.539 89.3165 105.304 89.5831 105.112C89.8498 104.92 90.1698 104.771 90.5431 104.664C90.9165 104.547 91.3271 104.488 91.7751 104.488C92.3725 104.488 92.9058 104.568 93.3751 104.728C93.8551 104.877 94.2765 105.059 94.6391 105.272L94.0631 106.488Z" fill="#2D2D2D"/>
<defs>
<clipPath id="clip0">
<rect width="47" height="67" fill="white" transform="translate(39 26)"/>
</clipPath>
</defs>
</svg>
