<svg width="26" height="26" viewBox="0 0 26 26" fill="none" xmlns="http://www.w3.org/2000/svg">
<path d="M13.0017 0C5.82218 0 0.00195312 5.8204 0.00195312 12.9997C0.00195312 20.1789 5.82218 26 13.0016 26C20.181 26 26.0017 20.1792 26.0017 12.9997C26.0017 5.82014 20.1811 0 13.0017 0ZM13.8994 14.5893C13.8987 14.6235 13.8936 14.6576 13.8888 14.6918C13.8854 14.7175 13.8839 14.7437 13.8781 14.769C13.8723 14.7952 13.8623 14.8211 13.8538 14.8474C13.8437 14.8791 13.8342 14.9108 13.821 14.9407C13.8185 14.9459 13.8176 14.9514 13.8153 14.9566C13.7957 14.9984 13.773 15.0375 13.7482 15.0746C13.7466 15.0769 13.7445 15.0791 13.743 15.0814C13.7146 15.123 13.6823 15.1608 13.6483 15.1962C13.6389 15.2059 13.6293 15.2147 13.6193 15.2239C13.5894 15.2524 13.5579 15.2785 13.5245 15.3023C13.5142 15.3098 13.5043 15.3176 13.4935 15.3248C13.4506 15.3528 13.4056 15.3775 13.3588 15.3978C13.3486 15.4023 13.3381 15.405 13.3277 15.4091C13.2882 15.4243 13.2482 15.437 13.2068 15.4466C13.192 15.4502 13.1774 15.4534 13.1623 15.4561C13.1093 15.4658 13.0555 15.4724 13.0011 15.4724C12.9901 15.4724 12.9788 15.4691 12.9678 15.4686C12.9156 15.4666 12.864 15.4626 12.8143 15.452C12.7988 15.4486 12.7836 15.4418 12.768 15.4376C12.7218 15.425 12.6765 15.4111 12.6334 15.3918C12.6284 15.3892 12.6232 15.3888 12.6183 15.3866L7.63362 13.0354C7.18451 12.8236 6.99211 12.2878 7.20383 11.8387C7.41556 11.3898 7.95143 11.1971 8.40054 11.4089L12.1026 13.1547V5.39495C12.1026 4.89843 12.5052 4.49586 13.0017 4.49586C13.4982 4.49586 13.9008 4.89843 13.9008 5.39495V14.5731H13.901C13.901 14.5785 13.8994 14.5838 13.8994 14.5893Z" fill="white"/>
</svg>
