<svg width="130" height="153" viewBox="0 0 130 153" fill="none" xmlns="http://www.w3.org/2000/svg">
<rect width="129.54" height="153" rx="64.77" fill="#F0F0F0"/>
<path d="M104 81.6158V77H26V81.6158C26 87.3508 33.2316 92 42.1521 92H87.8476C96.7686 92.0002 104 87.3509 104 81.6158Z" fill="#F2995E"/>
<path d="M72.4501 38H57.5499C40.1253 38 26 47.0279 26 58.1644V59H104V58.1644C104 47.028 89.8747 38 72.4501 38Z" fill="#FF8859"/>
<path d="M38.4999 72.5L48.4999 67.5L62.5 76.5C53.5 77.8333 33.6999 79.7 26.4999 76.5C19.2999 73.3 23.4999 68.1667 26.4999 66L38.4999 72.5Z" fill="#D04E42"/>
<path d="M104.175 59.3881H99.3724V65.98C99.3724 69.0342 96.7299 71.5104 93.4701 71.5104C90.2104 71.5104 87.5679 69.0344 87.5679 65.98V70.1822C88.9852 71.4178 90.6189 72.4496 93.347 72.4496C98.6633 72.4496 101.048 67.2285 105.001 66.4127C106.736 66.0544 107.97 64.6084 107.97 62.9434C107.97 60.9797 106.271 59.3881 104.175 59.3881Z" fill="#1BCF92"/>
<path d="M69.8608 71.5104C66.601 71.5104 63.9585 69.0344 63.9585 65.98V59.3881H46.5069C46.1823 60.0495 46 60.7848 46 61.5605C46 63.7941 47.5157 65.7576 49.7234 66.4756C50.5164 66.2021 51.4265 66.0391 52.5097 66.0391C59.31 66.0391 59.31 72.4496 66.1114 72.4496H66.1442C67.7884 72.4496 69.0352 72.0749 70.0767 71.5068C70.005 71.5092 69.9331 71.5104 69.8608 71.5104Z" fill="#1BCF92"/>
<path d="M29 67C26.2 65 23.8334 64.5 23 64.5C21.4 61.3 23.6667 59.8333 25 59.5H52.5V64.5C49.3334 66.3333 42.3 70.5 39.5 72.5C36 75 32.5 69.5 29 67Z" fill="#1BCF92"/>
<path d="M75.7629 71.5745V67.01C75.724 67.0317 75.6854 67.0535 75.6469 67.0756C75.1181 69.5413 72.8393 71.4137 70.0763 71.5067C69.0349 72.0749 67.7881 72.4496 66.1439 72.4496H66.1111C59.3097 72.4496 59.3097 66.0391 52.5094 66.0391C50.3302 66.0391 48.8497 66.6978 47.6196 67.5923C49.1411 73.065 54.4501 77.1049 60.7672 77.1049H81.6652C78.4056 77.1049 75.7629 74.6289 75.7629 71.5745Z" fill="#D04E42"/>
<path d="M104.331 66.5961C100.762 67.8139 98.3559 72.4494 93.3464 72.4494C90.6184 72.4494 88.9847 71.4176 87.5673 70.182V71.5743C87.5673 74.6287 84.9248 77.1048 81.665 77.1048H101.481C104.778 77.1048 107.45 74.6007 107.45 71.5117C107.45 69.3899 106.189 67.5439 104.331 66.5961Z" fill="#D04E42"/>
<path d="M71.3574 65.98V59.3881H63.9585V65.98C63.9585 69.0344 66.601 71.5104 69.8608 71.5104C71.2618 71.5104 72.548 71.0522 73.5602 70.288C72.2174 69.2743 71.3574 67.7216 71.3574 65.98Z" fill="white"/>
<path d="M73.5605 70.2881C74.1991 70.7702 74.9464 71.1305 75.7634 71.3307V65.9802C75.7634 67.7217 74.9034 69.2743 73.5605 70.2881Z" fill="#FFD15C"/>
<path d="M71.3574 59.3881V65.98C71.3574 67.7216 72.2174 69.2743 73.5602 70.288C74.9031 69.2743 75.7631 67.7216 75.7631 65.98V71.3305V71.5745C75.7631 74.6289 78.4056 77.105 81.6653 77.105C83.0664 77.105 84.3526 76.6468 85.3648 75.8826C86.7076 74.8688 87.5676 73.3162 87.5676 71.5745V65.98C87.5676 69.0344 90.2101 71.5104 93.4699 71.5104C93.9871 71.5104 94.4885 71.4476 94.9665 71.3307C95.7834 71.1307 96.5308 70.7701 97.1693 70.288C98.5122 69.2743 99.3721 67.7216 99.3721 65.98V59.3881H71.3574Z" fill="#FFD15C"/>
<path d="M81.4538 24.2913L66.1274 16V32.5826L81.4538 24.2913Z" fill="#279FC9"/>
<path d="M17.9752 107.816H12.6312L11.7352 112.92H10.2152L12.1832 101.72H13.7032L12.8552 106.504H18.1992L19.0472 101.72H20.5672L18.5992 112.92H17.0792L17.9752 107.816ZM21.3539 109.64C21.3539 108.872 21.4819 108.168 21.7379 107.528C22.0046 106.877 22.3726 106.323 22.8419 105.864C23.3112 105.405 23.8712 105.048 24.5219 104.792C25.1726 104.536 25.8819 104.408 26.6499 104.408C27.2792 104.408 27.8286 104.472 28.2979 104.6C28.7779 104.728 29.1726 104.856 29.4819 104.984L28.4739 110.664C28.4632 110.717 28.4526 110.781 28.4419 110.856C28.4419 110.92 28.4419 110.989 28.4419 111.064C28.4419 111.363 28.5272 111.576 28.6979 111.704C28.8686 111.821 29.0926 111.88 29.3699 111.88L28.8739 113C28.2979 113 27.8552 112.861 27.5459 112.584C27.2472 112.307 27.0979 111.864 27.0979 111.256C26.7992 111.768 26.4206 112.205 25.9619 112.568C25.5139 112.931 24.9859 113.112 24.3779 113.112C23.9832 113.112 23.6046 113.032 23.2419 112.872C22.8792 112.712 22.5539 112.483 22.2659 112.184C21.9886 111.885 21.7646 111.523 21.5939 111.096C21.4339 110.659 21.3539 110.173 21.3539 109.64ZM27.8979 105.832C27.6952 105.768 27.4819 105.72 27.2579 105.688C27.0446 105.645 26.7832 105.624 26.4739 105.624C25.9192 105.624 25.4179 105.72 24.9699 105.912C24.5219 106.104 24.1379 106.371 23.8179 106.712C23.4979 107.053 23.2526 107.459 23.0819 107.928C22.9112 108.397 22.8259 108.909 22.8259 109.464C22.8259 109.848 22.8792 110.189 22.9859 110.488C23.1032 110.776 23.2526 111.021 23.4339 111.224C23.6152 111.427 23.8179 111.581 24.0419 111.688C24.2766 111.784 24.5166 111.832 24.7619 111.832C25.0819 111.832 25.3859 111.747 25.6739 111.576C25.9726 111.405 26.2392 111.165 26.4739 110.856C26.7086 110.536 26.9112 110.163 27.0819 109.736C27.2526 109.299 27.3806 108.824 27.4659 108.312L27.8979 105.832ZM41.2707 105.672C41.004 105.672 40.716 105.747 40.4067 105.896C40.0973 106.045 39.7987 106.275 39.5107 106.584C39.2333 106.893 38.9773 107.288 38.7427 107.768C38.5187 108.248 38.348 108.819 38.2307 109.48L37.6227 112.92H36.1827L37.0947 107.944C37.148 107.688 37.18 107.501 37.1907 107.384C37.2013 107.267 37.2067 107.149 37.2067 107.032C37.2067 106.616 37.084 106.285 36.8387 106.04C36.604 105.795 36.2947 105.672 35.9107 105.672C35.6333 105.672 35.34 105.752 35.0307 105.912C34.7213 106.061 34.4227 106.296 34.1347 106.616C33.8467 106.936 33.5853 107.347 33.3507 107.848C33.1267 108.339 32.956 108.925 32.8387 109.608L32.2627 112.92H30.8227L32.2787 104.6H33.6707L33.3187 106.52C33.6387 105.88 34.0707 105.368 34.6147 104.984C35.1587 104.6 35.7293 104.408 36.3267 104.408C36.6573 104.408 36.956 104.461 37.2227 104.568C37.4893 104.675 37.7187 104.824 37.9107 105.016C38.1133 105.197 38.2733 105.421 38.3907 105.688C38.508 105.944 38.5827 106.221 38.6147 106.52C38.9773 105.848 39.42 105.331 39.9427 104.968C40.476 104.595 41.052 104.408 41.6707 104.408C42.0227 104.408 42.3427 104.467 42.6307 104.584C42.9187 104.701 43.164 104.867 43.3667 105.08C43.5693 105.283 43.724 105.523 43.8307 105.8C43.948 106.077 44.0067 106.376 44.0067 106.696C44.0067 106.973 43.9747 107.309 43.9107 107.704L42.9827 112.92H41.5427L42.4547 107.944C42.508 107.688 42.54 107.501 42.5507 107.384C42.5613 107.267 42.5667 107.149 42.5667 107.032C42.5667 106.616 42.444 106.285 42.1987 106.04C41.964 105.795 41.6547 105.672 41.2707 105.672ZM53.496 107.48C53.496 108.28 53.352 109.021 53.064 109.704C52.7867 110.387 52.3974 110.984 51.896 111.496C51.3947 111.997 50.7974 112.392 50.104 112.68C49.4107 112.968 48.6534 113.112 47.832 113.112C47.3307 113.112 46.872 113.064 46.456 112.968C46.0507 112.883 45.7094 112.771 45.432 112.632L47.464 101.08H48.904L47.992 106.28C48.3014 105.704 48.696 105.251 49.176 104.92C49.6667 104.579 50.216 104.408 50.824 104.408C51.208 104.408 51.56 104.483 51.88 104.632C52.2107 104.781 52.4934 104.995 52.728 105.272C52.9734 105.539 53.16 105.859 53.288 106.232C53.4267 106.605 53.496 107.021 53.496 107.48ZM50.456 105.656C50.168 105.656 49.8694 105.731 49.56 105.88C49.2507 106.019 48.9574 106.259 48.68 106.6C48.4027 106.931 48.1467 107.368 47.912 107.912C47.6774 108.456 47.4907 109.128 47.352 109.928L47.032 111.704C47.2027 111.747 47.3787 111.779 47.56 111.8C47.752 111.821 47.9547 111.832 48.168 111.832C48.712 111.832 49.2187 111.725 49.688 111.512C50.168 111.299 50.5787 111.005 50.92 110.632C51.2614 110.259 51.528 109.821 51.72 109.32C51.9227 108.808 52.024 108.259 52.024 107.672C52.024 107.053 51.88 106.563 51.592 106.2C51.304 105.837 50.9254 105.656 50.456 105.656ZM57.1159 113.112C56.7959 113.112 56.4919 113.059 56.2039 112.952C55.9266 112.845 55.6759 112.691 55.4519 112.488C55.2386 112.285 55.0679 112.04 54.9399 111.752C54.8226 111.464 54.7639 111.139 54.7639 110.776C54.7639 110.637 54.7692 110.499 54.7799 110.36C54.7906 110.211 54.8066 110.056 54.8279 109.896L55.7399 104.6H57.1799L56.2519 109.864C56.2306 109.971 56.2146 110.067 56.2039 110.152C56.2039 110.227 56.2039 110.312 56.2039 110.408C56.2039 110.888 56.3426 111.245 56.6199 111.48C56.8972 111.715 57.2226 111.832 57.5959 111.832C57.8946 111.832 58.1932 111.763 58.4919 111.624C58.8012 111.475 59.0839 111.267 59.3399 111C59.5959 110.733 59.8199 110.408 60.0119 110.024C60.2146 109.629 60.3586 109.181 60.4439 108.68L61.1639 104.6H62.6039L61.5479 110.664C61.5372 110.717 61.5266 110.781 61.5159 110.856C61.5159 110.92 61.5159 110.989 61.5159 111.064C61.5159 111.363 61.6012 111.576 61.7719 111.704C61.9426 111.821 62.1666 111.88 62.4439 111.88L61.9479 113C61.3719 113 60.9292 112.861 60.6199 112.584C60.3212 112.307 60.1719 111.864 60.1719 111.256V111.112C59.3932 112.445 58.3746 113.112 57.1159 113.112ZM65.1655 106.936C65.1762 106.883 65.1815 106.824 65.1815 106.76C65.1922 106.685 65.1975 106.611 65.1975 106.536C65.1975 106.237 65.1122 106.029 64.9415 105.912C64.7709 105.784 64.5469 105.72 64.2695 105.72L64.7655 104.6C65.3415 104.6 65.7789 104.733 66.0775 105C66.3762 105.267 66.5255 105.672 66.5255 106.216V106.536C66.8349 105.768 67.2295 105.224 67.7095 104.904C68.2002 104.573 68.7549 104.408 69.3735 104.408C69.6189 104.408 69.8269 104.429 69.9975 104.472C70.1789 104.504 70.3282 104.547 70.4455 104.6L69.8055 106.008C69.6775 105.955 69.5442 105.917 69.4055 105.896C69.2669 105.875 69.1069 105.864 68.9255 105.864C68.6375 105.864 68.3495 105.939 68.0615 106.088C67.7735 106.227 67.5015 106.467 67.2455 106.808C66.9895 107.149 66.7549 107.597 66.5415 108.152C66.3282 108.707 66.1522 109.395 66.0135 110.216L65.5495 112.92H64.1095L65.1655 106.936ZM75.4777 104.408C76.1177 104.408 76.6723 104.472 77.1417 104.6C77.6217 104.728 78.0163 104.856 78.3257 104.984L76.9337 113.016C76.8057 113.752 76.6083 114.349 76.3417 114.808C76.075 115.277 75.771 115.645 75.4297 115.912C75.0883 116.189 74.7257 116.376 74.3417 116.472C73.9577 116.579 73.579 116.632 73.2057 116.632C72.4803 116.632 71.8617 116.483 71.3497 116.184C70.8483 115.896 70.4377 115.549 70.1177 115.144L71.2377 114.312C71.7603 115.027 72.4483 115.384 73.3017 115.384C73.835 115.384 74.3043 115.187 74.7097 114.792C75.115 114.397 75.403 113.725 75.5737 112.776L75.8457 111.208C75.5363 111.688 75.163 112.093 74.7257 112.424C74.2883 112.755 73.7923 112.92 73.2377 112.92C72.8537 112.92 72.4803 112.851 72.1177 112.712C71.755 112.563 71.4297 112.349 71.1417 112.072C70.8537 111.795 70.6243 111.448 70.4537 111.032C70.283 110.616 70.1977 110.141 70.1977 109.608C70.1977 108.84 70.331 108.136 70.5977 107.496C70.8643 106.856 71.2323 106.307 71.7017 105.848C72.171 105.389 72.7257 105.037 73.3657 104.792C74.0163 104.536 74.7203 104.408 75.4777 104.408ZM71.6697 109.448C71.6697 109.811 71.723 110.131 71.8297 110.408C71.947 110.675 72.0963 110.904 72.2777 111.096C72.459 111.277 72.667 111.416 72.9017 111.512C73.1363 111.597 73.3763 111.64 73.6217 111.64C73.9203 111.64 74.2083 111.56 74.4857 111.4C74.7737 111.229 75.035 110.995 75.2697 110.696C75.515 110.387 75.7283 110.019 75.9097 109.592C76.091 109.165 76.2297 108.685 76.3257 108.152L76.7417 105.832C76.539 105.768 76.3257 105.72 76.1017 105.688C75.8777 105.645 75.6163 105.624 75.3177 105.624C74.7843 105.624 74.2937 105.725 73.8457 105.928C73.3977 106.12 73.0137 106.387 72.6937 106.728C72.3737 107.069 72.123 107.475 71.9417 107.944C71.7603 108.403 71.6697 108.904 71.6697 109.448ZM81.944 113.112C81.624 113.112 81.32 113.059 81.032 112.952C80.7547 112.845 80.504 112.691 80.28 112.488C80.0667 112.285 79.896 112.04 79.768 111.752C79.6507 111.464 79.592 111.139 79.592 110.776C79.592 110.637 79.5974 110.499 79.608 110.36C79.6187 110.211 79.6347 110.056 79.656 109.896L80.568 104.6H82.008L81.08 109.864C81.0587 109.971 81.0427 110.067 81.032 110.152C81.032 110.227 81.032 110.312 81.032 110.408C81.032 110.888 81.1707 111.245 81.448 111.48C81.7254 111.715 82.0507 111.832 82.424 111.832C82.7227 111.832 83.0214 111.763 83.32 111.624C83.6294 111.475 83.912 111.267 84.168 111C84.424 110.733 84.648 110.408 84.84 110.024C85.0427 109.629 85.1867 109.181 85.272 108.68L85.992 104.6H87.432L86.376 110.664C86.3654 110.717 86.3547 110.781 86.344 110.856C86.344 110.92 86.344 110.989 86.344 111.064C86.344 111.363 86.4294 111.576 86.6 111.704C86.7707 111.821 86.9947 111.88 87.272 111.88L86.776 113C86.2 113 85.7574 112.861 85.448 112.584C85.1494 112.307 85 111.864 85 111.256V111.112C84.2214 112.445 83.2027 113.112 81.944 113.112ZM92.2035 113.112C91.6702 113.112 91.1849 113.027 90.7475 112.856C90.3102 112.675 89.9315 112.424 89.6115 112.104C89.3022 111.773 89.0569 111.373 88.8755 110.904C88.7049 110.435 88.6195 109.907 88.6195 109.32C88.6195 108.659 88.7262 108.029 88.9395 107.432C89.1529 106.835 89.4515 106.312 89.8355 105.864C90.2302 105.416 90.7049 105.064 91.2595 104.808C91.8142 104.541 92.4329 104.408 93.1155 104.408C93.5742 104.408 93.9849 104.477 94.3475 104.616C94.7102 104.755 95.0142 104.936 95.2595 105.16C95.5155 105.384 95.7075 105.645 95.8355 105.944C95.9742 106.243 96.0435 106.552 96.0435 106.872C96.0435 107.469 95.8995 107.955 95.6115 108.328C95.3342 108.701 94.9822 109 94.5555 109.224C94.1289 109.437 93.6595 109.587 93.1475 109.672C92.6355 109.747 92.1502 109.784 91.6915 109.784C91.4035 109.784 91.1155 109.773 90.8275 109.752C90.5502 109.72 90.3049 109.688 90.0915 109.656C90.1769 110.36 90.4222 110.899 90.8275 111.272C91.2435 111.645 91.7822 111.832 92.4435 111.832C92.9769 111.832 93.4515 111.763 93.8675 111.624C94.2835 111.485 94.6355 111.347 94.9235 111.208L95.0515 112.488C94.7315 112.637 94.3262 112.781 93.8355 112.92C93.3555 113.048 92.8115 113.112 92.2035 113.112ZM93.0035 105.624C92.6302 105.624 92.2782 105.699 91.9475 105.848C91.6275 105.987 91.3395 106.184 91.0835 106.44C90.8382 106.696 90.6302 107 90.4595 107.352C90.2995 107.704 90.1875 108.088 90.1235 108.504C90.3689 108.557 90.6142 108.595 90.8595 108.616C91.1049 108.637 91.3822 108.648 91.6915 108.648C92.5982 108.648 93.3075 108.525 93.8195 108.28C94.3422 108.024 94.6035 107.592 94.6035 106.984C94.6035 106.611 94.4542 106.291 94.1555 106.024C93.8675 105.757 93.4835 105.624 93.0035 105.624ZM102.725 106.408C102.415 106.195 102.069 106.008 101.685 105.848C101.311 105.688 100.885 105.608 100.405 105.608C99.8928 105.608 99.4981 105.693 99.2208 105.864C98.9541 106.035 98.8208 106.259 98.8208 106.536C98.8208 106.664 98.8421 106.781 98.8848 106.888C98.9381 106.995 99.0234 107.107 99.1408 107.224C99.2688 107.331 99.4394 107.448 99.6528 107.576C99.8661 107.704 100.138 107.853 100.469 108.024C101.205 108.397 101.743 108.776 102.085 109.16C102.437 109.533 102.613 110.008 102.613 110.584C102.613 111.011 102.527 111.384 102.357 111.704C102.186 112.013 101.946 112.275 101.637 112.488C101.338 112.691 100.986 112.845 100.581 112.952C100.175 113.059 99.7381 113.112 99.2688 113.112C98.6181 113.112 98.0421 113.032 97.5408 112.872C97.0501 112.701 96.6234 112.483 96.2608 112.216L97.0768 111.032C97.3648 111.267 97.7008 111.464 98.0848 111.624C98.4794 111.784 98.9168 111.864 99.3968 111.864C99.9408 111.864 100.362 111.763 100.661 111.56C100.97 111.357 101.125 111.107 101.125 110.808C101.125 110.669 101.098 110.541 101.045 110.424C101.002 110.296 100.917 110.168 100.789 110.04C100.661 109.912 100.485 109.784 100.261 109.656C100.047 109.517 99.7754 109.363 99.4448 109.192C99.0394 108.989 98.7034 108.797 98.4368 108.616C98.1808 108.424 97.9728 108.227 97.8128 108.024C97.6634 107.821 97.5568 107.608 97.4928 107.384C97.4288 107.149 97.3968 106.893 97.3968 106.616C97.3968 106.296 97.4714 106.003 97.6208 105.736C97.7701 105.459 97.9781 105.224 98.2448 105.032C98.5114 104.84 98.8314 104.691 99.2048 104.584C99.5781 104.467 99.9888 104.408 100.437 104.408C101.034 104.408 101.567 104.488 102.037 104.648C102.517 104.797 102.938 104.979 103.301 105.192L102.725 106.408ZM104.01 109.64C104.01 108.872 104.138 108.168 104.394 107.528C104.661 106.877 105.029 106.323 105.498 105.864C105.967 105.405 106.527 105.048 107.178 104.792C107.829 104.536 108.538 104.408 109.306 104.408C109.935 104.408 110.485 104.472 110.954 104.6C111.434 104.728 111.829 104.856 112.138 104.984L111.13 110.664C111.119 110.717 111.109 110.781 111.098 110.856C111.098 110.92 111.098 110.989 111.098 111.064C111.098 111.363 111.183 111.576 111.354 111.704C111.525 111.821 111.749 111.88 112.026 111.88L111.53 113C110.954 113 110.511 112.861 110.202 112.584C109.903 112.307 109.754 111.864 109.754 111.256C109.455 111.768 109.077 112.205 108.618 112.568C108.17 112.931 107.642 113.112 107.034 113.112C106.639 113.112 106.261 113.032 105.898 112.872C105.535 112.712 105.21 112.483 104.922 112.184C104.645 111.885 104.421 111.523 104.25 111.096C104.09 110.659 104.01 110.173 104.01 109.64ZM110.554 105.832C110.351 105.768 110.138 105.72 109.914 105.688C109.701 105.645 109.439 105.624 109.13 105.624C108.575 105.624 108.074 105.72 107.626 105.912C107.178 106.104 106.794 106.371 106.474 106.712C106.154 107.053 105.909 107.459 105.738 107.928C105.567 108.397 105.482 108.909 105.482 109.464C105.482 109.848 105.535 110.189 105.642 110.488C105.759 110.776 105.909 111.021 106.09 111.224C106.271 111.427 106.474 111.581 106.698 111.688C106.933 111.784 107.173 111.832 107.418 111.832C107.738 111.832 108.042 111.747 108.33 111.576C108.629 111.405 108.895 111.165 109.13 110.856C109.365 110.536 109.567 110.163 109.738 109.736C109.909 109.299 110.037 108.824 110.122 108.312L110.554 105.832ZM119.303 106.408C118.994 106.195 118.647 106.008 118.263 105.848C117.89 105.688 117.463 105.608 116.983 105.608C116.471 105.608 116.076 105.693 115.799 105.864C115.532 106.035 115.399 106.259 115.399 106.536C115.399 106.664 115.42 106.781 115.463 106.888C115.516 106.995 115.602 107.107 115.719 107.224C115.847 107.331 116.018 107.448 116.231 107.576C116.444 107.704 116.716 107.853 117.047 108.024C117.783 108.397 118.322 108.776 118.663 109.16C119.015 109.533 119.191 110.008 119.191 110.584C119.191 111.011 119.106 111.384 118.935 111.704C118.764 112.013 118.524 112.275 118.215 112.488C117.916 112.691 117.564 112.845 117.159 112.952C116.754 113.059 116.316 113.112 115.847 113.112C115.196 113.112 114.62 113.032 114.119 112.872C113.628 112.701 113.202 112.483 112.839 112.216L113.655 111.032C113.943 111.267 114.279 111.464 114.663 111.624C115.058 111.784 115.495 111.864 115.975 111.864C116.519 111.864 116.94 111.763 117.239 111.56C117.548 111.357 117.703 111.107 117.703 110.808C117.703 110.669 117.676 110.541 117.623 110.424C117.58 110.296 117.495 110.168 117.367 110.04C117.239 109.912 117.063 109.784 116.839 109.656C116.626 109.517 116.354 109.363 116.023 109.192C115.618 108.989 115.282 108.797 115.015 108.616C114.759 108.424 114.551 108.227 114.391 108.024C114.242 107.821 114.135 107.608 114.071 107.384C114.007 107.149 113.975 106.893 113.975 106.616C113.975 106.296 114.05 106.003 114.199 105.736C114.348 105.459 114.556 105.224 114.823 105.032C115.09 104.84 115.41 104.691 115.783 104.584C116.156 104.467 116.567 104.408 117.015 104.408C117.612 104.408 118.146 104.488 118.615 104.648C119.095 104.797 119.516 104.979 119.879 105.192L119.303 106.408Z" fill="#2D2D2D"/>
<path d="M108.857 62.8171C108.857 60.5516 107.288 58.6232 105.114 57.9364C104.837 46.118 94.4906 36.5835 81.8123 36.5835H67.0152V33.3766L81.4912 25.5452C82.0175 25.2606 82.3416 24.7345 82.3416 24.165C82.3416 23.5956 82.0175 23.0695 81.4912 22.7848L66.1648 14.4935C65.6385 14.2089 64.9902 14.2089 64.4639 14.4935C63.9376 14.7782 63.6134 15.3043 63.6134 15.8737V36.5835H48.8162C36.1379 36.5835 25.7917 46.1178 25.5146 57.9363C23.3411 58.6232 21.7715 60.5516 21.7715 62.8171C21.7715 64.4573 22.6187 65.9643 23.9522 66.9177C22.8937 68.1677 22.2906 69.7345 22.2906 71.3856C22.2906 73.7944 23.562 75.9302 25.5089 77.2348V81.4847C25.5089 87.9534 31.1254 93.2162 38.029 93.2162H92.5996C99.5031 93.2162 105.12 87.9534 105.12 81.4847V77.2348C107.067 75.9302 108.338 73.7944 108.338 71.3856C108.338 69.7345 107.735 68.1677 106.676 66.9177C108.01 65.9643 108.857 64.4571 108.857 62.8171ZM67.0152 18.6342L77.239 24.1652L67.0152 29.696V18.6342ZM48.8162 39.771H81.8123C92.5183 39.771 101.277 47.7323 101.702 57.668H28.9268C28.9666 56.7359 29.0799 55.8209 29.261 54.9284H84.1048C85.0442 54.9284 85.8057 54.2149 85.8057 53.3346C85.8057 52.4544 85.0442 51.7409 84.1048 51.7409H30.2314C33.105 44.7472 40.3522 39.771 48.8162 39.771ZM100.668 75.385H87.1861C87.6892 74.6765 88.0607 73.8792 88.2676 73.024C89.4063 73.556 90.7883 73.917 92.5334 73.917C96.2182 73.917 98.7306 71.8518 100.749 70.1925C101.65 69.4519 102.513 68.7432 103.369 68.2885C104.351 69.0407 104.936 70.1723 104.936 71.3856C104.936 73.5909 103.021 75.385 100.668 75.385ZM96.8581 65.8537C96.8581 68.0244 94.9733 69.7904 92.6567 69.7904C90.3401 69.7904 88.4553 68.0244 88.4553 65.8537C88.4553 64.9735 87.6938 64.2599 86.7544 64.2599C85.815 64.2599 85.0535 64.9735 85.0535 65.8537V71.4482C85.0535 73.6189 83.1688 75.385 80.8522 75.385C78.5356 75.385 76.6508 73.6189 76.6508 71.4482V65.8537C76.6508 64.9735 75.8893 64.2599 74.9499 64.2599C74.0105 64.2599 73.249 64.9735 73.249 65.8537C73.249 67.9686 71.46 69.6993 69.2255 69.7869C69.2073 69.7872 69.1891 69.7879 69.1709 69.7887C69.13 69.7898 69.0888 69.7904 69.0476 69.7904C66.731 69.7904 64.8463 68.0244 64.8463 65.8537V60.8555H96.8582V65.8537H96.8581ZM25.6924 71.3856C25.6924 70.1723 26.2777 69.0407 27.2592 68.2885C28.1162 68.7432 28.9782 69.4519 29.8793 70.1925C31.8981 71.8519 34.4105 73.917 38.0951 73.917C42.2028 73.917 44.3648 71.879 46.1019 70.2415C47.723 68.7134 49.0035 67.5064 51.6961 67.5064C54.3887 67.5064 55.6689 68.7134 57.29 70.2413C59.0273 71.8789 61.1893 73.917 65.2978 73.917H65.3307C66.9708 73.917 68.4217 73.5993 69.752 72.9475C71.0395 72.8361 72.2353 72.4225 73.257 71.7837C73.323 73.1105 73.7782 74.3438 74.5177 75.385H29.9606C27.6072 75.385 25.6924 73.5909 25.6924 71.3856ZM27.2667 60.8555H61.4443V65.8537C61.4443 67.5963 62.1156 69.1948 63.2285 70.4341C61.8149 69.9853 60.8432 69.0692 59.7028 67.9943C57.9656 66.3568 55.8038 64.3191 51.6963 64.3191C47.5885 64.3191 45.4265 66.357 43.6894 67.9946C42.0682 69.5227 40.788 70.7296 38.0953 70.7296C35.6913 70.7296 33.9579 69.305 32.1228 67.7965C30.7804 66.6933 29.3927 65.5523 27.6931 64.9724C27.5472 64.9225 27.3962 64.8922 27.2443 64.881C27.1097 64.8136 26.9633 64.7621 26.8071 64.7298C25.8604 64.5345 25.1733 63.73 25.1733 62.8171C25.1733 61.7354 26.1123 60.8555 27.2667 60.8555ZM101.718 78.5725V81.4849C101.718 81.5644 101.717 81.6436 101.714 81.7225H47.2745C46.3351 81.7225 45.5736 82.436 45.5736 83.3163C45.5736 84.1965 46.3351 84.91 47.2745 84.91H100.953C99.5414 87.9209 96.3283 90.0288 92.5996 90.0288H38.029C33.0011 90.0288 28.9106 86.196 28.9106 81.4849V78.5725H101.718ZM103.822 64.7299C103.665 64.7623 103.519 64.8138 103.384 64.8812C103.232 64.8923 103.081 64.9226 102.936 64.9725C101.947 65.3097 101.064 65.8368 100.235 66.4356C100.251 66.2437 100.26 66.0496 100.26 65.8537V60.8555H103.362C104.516 60.8555 105.455 61.7354 105.455 62.8171C105.455 63.73 104.768 64.5345 103.822 64.7299Z" fill="#323232"/>
</svg>
