<svg width="34" height="33" viewBox="0 0 34 33" fill="none" xmlns="http://www.w3.org/2000/svg">
<path d="M2.24864 33C1.74069 32.9991 1.25646 32.7849 0.9141 32.4095C0.565428 32.0372 0.392171 31.5338 0.437867 31.0257L0.881506 26.1462L21.3758 5.65348L27.7805 12.0581L7.29164 32.549L2.41342 32.9928C2.35729 32.9982 2.30115 33 2.24864 33ZM29.0589 10.7776L22.656 4.37292L26.4967 0.53122C26.8363 0.191106 27.2972 0 27.7778 0C28.2584 0 28.7193 0.191106 29.0589 0.53122L32.8996 4.37292C33.2396 4.71265 33.4307 5.17366 33.4307 5.65439C33.4307 6.13512 33.2396 6.59613 32.8996 6.93586L29.0607 10.7757L29.0589 10.7776Z" fill="#E92F48"/>
</svg>
