<svg width="129" height="153" viewBox="0 0 129 153" fill="none" xmlns="http://www.w3.org/2000/svg">
<rect width="128.52" height="153" rx="64.26" fill="#F0F0F0"/>
<path d="M95.6087 71.5L103.435 79L105 59H93C96.7565 61.8 96.3043 68.5 95.6087 71.5Z" fill="#FFDE69"/>
<path d="M33.1739 71.5L24.6957 79L23 59H36C31.9304 61.8 32.4203 68.5 33.1739 71.5Z" fill="#FFDE69"/>
<path d="M94.4948 60.3886C90.9863 56.1578 82.7229 55.2063 79.0297 55.2595L99.0002 74C98.9603 71.2257 98.0034 64.6194 94.4948 60.3886Z" fill="#FFAA97"/>
<path d="M40.9696 53.8579C36.344 56.8265 34.3958 64.9132 33.9999 68.5854L55.0275 51.0393C52.2689 50.7419 45.5953 50.8892 40.9696 53.8579Z" fill="#FFAA97"/>
<path d="M64.5 40L107 84V86.5H22.5L24.5 80.5L64.5 40Z" fill="#FFCE84"/>
<path d="M36.0602 59C33.5602 58.5 28.3602 57.5 27.5602 57.5C25.5602 53.0999 29.3935 51.3333 31.5602 51L40.5602 48L42.5602 45.5L46.5602 40L51.5602 37L60.0602 40H63.5602H68.0602C68.7269 39.5 70.9602 38.4 74.5602 38C79.0191 37.5046 81.0234 39.9546 85.4375 45.35L85.5602 45.5C90.0602 51 91.5602 49 98.5602 51C104.16 52.6 103.227 57 102.06 59H95.0602C91.0602 54.9999 80.0602 54.5 79.0602 55C78.2602 55.4 73.3935 48.8333 71.0602 45.5L63.5602 40L48.5602 56C46.5602 54.8 39.3935 57.5 36.0602 59Z" fill="#5EC96E"/>
<path d="M107.759 81.4413L106.324 79.9325V58.309C106.324 57.3809 105.545 56.6284 104.585 56.6284H103.764C103.677 54.9358 103.317 53.1875 102.215 51.7229C100.364 49.2643 97.1856 48.4626 94.1118 47.6873C92.0721 47.1727 90.1454 46.6869 88.8624 45.7839C87.6052 44.8991 86.5465 43.2927 85.426 41.592C83.7068 38.9832 81.9292 36.2856 78.8959 35.3333C75.9881 34.4203 72.9736 35.5565 70.0585 36.6549C68.1372 37.3787 66.1507 38.1272 64.4802 38.1272C62.8347 38.1272 60.8651 37.3903 58.9603 36.678C56.0283 35.5815 52.9966 34.4477 50.0698 35.3829C47.0656 36.3434 45.307 39.0361 43.6064 41.6402C42.4876 43.3535 41.4306 44.9721 40.1669 45.8651C38.8885 46.7684 36.9599 47.2523 34.9181 47.7648C31.8511 48.5347 28.6792 49.3305 26.8259 51.7767C25.7263 53.228 25.3591 54.9559 25.2627 56.6284H24.4144C23.4543 56.6284 22.6763 57.3809 22.6763 58.309V79.9325L21.2406 81.4413C19.9691 82.7776 19.648 84.6409 20.4026 86.304C20.4144 86.33 20.4264 86.3557 20.4386 86.3814C20.4447 86.3942 20.4509 86.407 20.457 86.4199C21.116 87.7724 22.3686 88.6864 23.8527 88.9331C23.9228 88.9447 104.329 89 104.329 89C106.207 89 107.842 87.967 108.597 86.304C109.352 84.6412 109.031 82.7778 107.759 81.4413ZM102.847 59.9895V76.2791L99.0593 72.298C99.6371 70.7231 99.9295 69.0725 99.9295 67.3766C99.9295 64.6868 99.1806 62.1629 97.874 59.9895H102.847ZM71.3205 39.7865C73.7758 38.8616 76.0943 37.9877 77.8224 38.5302C79.6681 39.1097 81.0408 41.1928 82.4942 43.3981C83.7393 45.2881 85.0272 47.2422 86.8168 48.5014C88.6317 49.7785 90.9716 50.3687 93.2345 50.9395C95.8317 51.5946 98.2849 52.2133 99.4044 53.7006C99.9858 54.4732 100.211 55.5317 100.283 56.6284H95.1091C92.3798 54.1512 88.7099 52.6318 84.6801 52.6318C83.3631 52.6318 82.064 52.7933 80.8042 53.1127L68.9406 40.6447C69.7418 40.3814 70.536 40.0822 71.3205 39.7865ZM96.4531 67.3766C96.4531 68.0521 96.3931 68.718 96.2742 69.3712L83.5903 56.041C83.951 56.0091 84.3145 55.9931 84.6797 55.9931C91.1715 55.9929 96.4531 61.0996 96.4531 67.3766ZM29.6303 53.7629C30.7516 52.2831 33.1996 51.6686 35.7916 51.0182C38.0592 50.4489 40.4043 49.8606 42.2182 48.5786C44.0166 47.308 45.3024 45.3388 46.546 43.4346C47.9827 41.2343 49.3399 39.1563 51.1613 38.5741C52.9052 38.0166 55.2372 38.889 57.7065 39.8126C58.48 40.1018 59.2627 40.3946 60.0523 40.6528L48.5398 52.7518C47.8942 52.6722 47.2411 52.6318 46.5886 52.6318C42.5586 52.6318 38.8889 54.151 36.1594 56.6284H28.7458C28.8253 55.5561 29.0551 54.5221 29.6303 53.7629ZM45.4006 56.0504L34.8162 67.1739C34.9216 61.376 39.5322 56.6212 45.4006 56.0504ZM26.1527 59.9895H33.3938C32.0873 62.1629 31.3383 64.6868 31.3383 67.3766C31.3383 68.4221 31.4518 69.4604 31.676 70.4742L26.1527 76.2791V59.9895ZM105.414 84.9535C105.32 85.1597 105.027 85.6391 104.329 85.6391H24.6711C23.9723 85.6391 23.6794 85.1595 23.5859 84.9535C23.5786 84.9374 23.5708 84.9192 23.563 84.8994C23.5598 84.8915 23.5567 84.8831 23.5534 84.8747C23.5518 84.8705 23.5503 84.8661 23.5487 84.8617C23.5456 84.8528 23.5424 84.8437 23.5393 84.8345C23.5378 84.8298 23.5362 84.8251 23.5346 84.8202C23.4538 84.5652 23.407 84.1289 23.7988 83.7173L63.6276 41.8592C63.7376 41.7434 63.8562 41.6631 63.9719 41.6076C64.1783 41.5088 64.3754 41.4889 64.4998 41.4889C64.694 41.4889 65.0656 41.537 65.3721 41.859L67.8053 44.4163L43.2401 70.2329C42.5902 70.9161 42.6359 71.9791 43.3425 72.6076C44.049 73.236 45.1484 73.1919 45.7985 72.5086L70.1672 46.8984L105.201 83.717C105.674 84.2143 105.508 84.7474 105.414 84.9535Z" fill="#323232"/>
<path d="M36.1878 110.088C36.1878 109.864 36.1558 109.661 36.0918 109.48C36.0278 109.288 35.9105 109.096 35.7398 108.904C35.5691 108.712 35.3398 108.515 35.0518 108.312C34.7745 108.099 34.4118 107.869 33.9638 107.624C33.5478 107.389 33.1958 107.16 32.9078 106.936C32.6198 106.712 32.3798 106.477 32.1878 106.232C32.0065 105.987 31.8731 105.72 31.7878 105.432C31.7131 105.144 31.6758 104.824 31.6758 104.472C31.6758 104.024 31.7665 103.619 31.9478 103.256C32.1291 102.893 32.3851 102.584 32.7158 102.328C33.0465 102.072 33.4411 101.875 33.8998 101.736C34.3585 101.597 34.8651 101.528 35.4198 101.528C36.0918 101.528 36.6945 101.613 37.2278 101.784C37.7718 101.944 38.2838 102.163 38.7638 102.44L37.9798 103.688C37.5958 103.443 37.1905 103.24 36.7638 103.08C36.3478 102.92 35.8571 102.84 35.2918 102.84C34.6518 102.84 34.1398 102.979 33.7558 103.256C33.3825 103.523 33.1958 103.875 33.1958 104.312C33.1958 104.515 33.2278 104.701 33.2918 104.872C33.3558 105.043 33.4571 105.208 33.5958 105.368C33.7451 105.528 33.9425 105.693 34.1878 105.864C34.4331 106.035 34.7425 106.216 35.1158 106.408C35.6385 106.685 36.0705 106.963 36.4118 107.24C36.7531 107.507 37.0198 107.779 37.2118 108.056C37.4145 108.333 37.5531 108.627 37.6278 108.936C37.7025 109.245 37.7398 109.581 37.7398 109.944C37.7398 110.435 37.6438 110.877 37.4518 111.272C37.2598 111.667 36.9878 112.003 36.6358 112.28C36.2838 112.547 35.8625 112.755 35.3718 112.904C34.8811 113.043 34.3425 113.112 33.7558 113.112C32.9878 113.112 32.2945 113.011 31.6758 112.808C31.0571 112.595 30.5131 112.301 30.0438 111.928L31.0358 110.696C31.3985 111.027 31.8198 111.293 32.2998 111.496C32.7905 111.688 33.3291 111.784 33.9158 111.784C34.6091 111.784 35.1585 111.635 35.5638 111.336C35.9798 111.027 36.1878 110.611 36.1878 110.088ZM39.2288 109.64C39.2288 108.872 39.3568 108.168 39.6128 107.528C39.8795 106.877 40.2475 106.323 40.7168 105.864C41.1861 105.405 41.7461 105.048 42.3968 104.792C43.0475 104.536 43.7568 104.408 44.5248 104.408C45.1541 104.408 45.7035 104.472 46.1728 104.6C46.6528 104.728 47.0475 104.856 47.3568 104.984L46.3488 110.664C46.3381 110.717 46.3275 110.781 46.3168 110.856C46.3168 110.92 46.3168 110.989 46.3168 111.064C46.3168 111.363 46.4021 111.576 46.5728 111.704C46.7435 111.821 46.9675 111.88 47.2448 111.88L46.7488 113C46.1728 113 45.7301 112.861 45.4208 112.584C45.1221 112.307 44.9728 111.864 44.9728 111.256C44.6741 111.768 44.2955 112.205 43.8368 112.568C43.3888 112.931 42.8608 113.112 42.2528 113.112C41.8581 113.112 41.4795 113.032 41.1168 112.872C40.7541 112.712 40.4288 112.483 40.1408 112.184C39.8635 111.885 39.6395 111.523 39.4688 111.096C39.3088 110.659 39.2288 110.173 39.2288 109.64ZM45.7728 105.832C45.5701 105.768 45.3568 105.72 45.1328 105.688C44.9195 105.645 44.6581 105.624 44.3488 105.624C43.7941 105.624 43.2928 105.72 42.8448 105.912C42.3968 106.104 42.0128 106.371 41.6928 106.712C41.3728 107.053 41.1275 107.459 40.9568 107.928C40.7861 108.397 40.7008 108.909 40.7008 109.464C40.7008 109.848 40.7541 110.189 40.8608 110.488C40.9781 110.776 41.1275 111.021 41.3088 111.224C41.4901 111.427 41.6928 111.581 41.9168 111.688C42.1515 111.784 42.3915 111.832 42.6368 111.832C42.9568 111.832 43.2608 111.747 43.5488 111.576C43.8475 111.405 44.1141 111.165 44.3488 110.856C44.5835 110.536 44.7861 110.163 44.9568 109.736C45.1275 109.299 45.2555 108.824 45.3408 108.312L45.7728 105.832ZM53.9295 105.672C53.6522 105.672 53.3482 105.752 53.0175 105.912C52.6975 106.061 52.3829 106.296 52.0735 106.616C51.7749 106.936 51.5029 107.347 51.2575 107.848C51.0122 108.339 50.8309 108.925 50.7135 109.608L50.1375 112.92H48.6975L50.1535 104.6H51.5455L51.1935 106.52C51.5242 105.88 51.9669 105.368 52.5215 104.984C53.0762 104.6 53.6682 104.408 54.2975 104.408C54.6602 104.408 54.9909 104.467 55.2895 104.584C55.5882 104.701 55.8389 104.867 56.0415 105.08C56.2549 105.283 56.4149 105.523 56.5215 105.8C56.6389 106.077 56.6975 106.376 56.6975 106.696C56.6975 106.973 56.6655 107.309 56.6015 107.704L55.6895 112.92H54.2495L55.1295 107.944C55.1829 107.688 55.2149 107.501 55.2255 107.384C55.2362 107.267 55.2415 107.149 55.2415 107.032C55.2415 106.616 55.1189 106.285 54.8735 106.04C54.6389 105.795 54.3242 105.672 53.9295 105.672ZM65.8314 113C65.2554 113 64.8128 112.861 64.5034 112.584C64.2048 112.296 64.0554 111.848 64.0554 111.24C63.7461 111.752 63.3568 112.195 62.8874 112.568C62.4181 112.931 61.8741 113.112 61.2554 113.112C60.8501 113.112 60.4608 113.032 60.0874 112.872C59.7248 112.712 59.3994 112.483 59.1114 112.184C58.8341 111.885 58.6101 111.523 58.4394 111.096C58.2794 110.659 58.1994 110.173 58.1994 109.64C58.1994 108.829 58.3221 108.099 58.5674 107.448C58.8234 106.797 59.1488 106.248 59.5434 105.8C59.9488 105.352 60.4021 105.011 60.9034 104.776C61.4048 104.531 61.9114 104.408 62.4234 104.408C62.9994 104.408 63.4901 104.547 63.8954 104.824C64.3008 105.101 64.6154 105.443 64.8394 105.848L65.6874 101.08H67.1274L65.4314 110.664C65.4208 110.717 65.4101 110.781 65.3994 110.856C65.3994 110.92 65.3994 110.989 65.3994 111.064C65.3994 111.363 65.4848 111.576 65.6554 111.704C65.8261 111.821 66.0501 111.88 66.3274 111.88L65.8314 113ZM61.6394 111.832C61.9381 111.832 62.2314 111.763 62.5194 111.624C62.8074 111.475 63.0688 111.267 63.3034 111C63.5488 110.723 63.7568 110.392 63.9274 110.008C64.1088 109.624 64.2421 109.197 64.3274 108.728L64.6154 107.08C64.4021 106.632 64.1141 106.285 63.7514 106.04C63.3888 105.784 62.9888 105.656 62.5514 105.656C62.1781 105.656 61.8154 105.741 61.4634 105.912C61.1221 106.083 60.8181 106.333 60.5514 106.664C60.2848 106.984 60.0714 107.379 59.9114 107.848C59.7514 108.317 59.6714 108.845 59.6714 109.432C59.6714 109.827 59.7248 110.173 59.8314 110.472C59.9488 110.771 60.0981 111.021 60.2794 111.224C60.4608 111.427 60.6688 111.581 60.9034 111.688C61.1381 111.784 61.3834 111.832 61.6394 111.832ZM69.248 112.92L68 104.712L69.392 104.52L70.336 111.32L73.36 105.192H74.88L75.712 111.32L79.072 104.52L80.256 105.128L76.272 112.92H74.688L73.856 106.808L70.832 112.92H69.248ZM81.8407 112.92H80.4007L81.8567 104.6H83.2967L81.8407 112.92ZM82.9127 103.176C82.614 103.176 82.3847 103.091 82.2247 102.92C82.0753 102.739 82.0007 102.531 82.0007 102.296C82.0007 101.955 82.1073 101.683 82.3207 101.48C82.534 101.267 82.8007 101.16 83.1207 101.16C83.4193 101.16 83.6433 101.251 83.7927 101.432C83.9527 101.603 84.0327 101.805 84.0327 102.04C84.0327 102.381 83.926 102.659 83.7127 102.872C83.4993 103.075 83.2327 103.176 82.9127 103.176ZM90.7828 106.28C90.5055 106.109 90.2121 105.971 89.9028 105.864C89.6041 105.747 89.2681 105.688 88.8948 105.688C88.4468 105.688 88.0415 105.779 87.6788 105.96C87.3161 106.141 87.0068 106.392 86.7508 106.712C86.4948 107.021 86.2975 107.389 86.1588 107.816C86.0201 108.243 85.9508 108.701 85.9508 109.192C85.9508 110.003 86.1535 110.648 86.5588 111.128C86.9641 111.597 87.5188 111.832 88.2228 111.832C88.6281 111.832 88.9855 111.784 89.2948 111.688C89.6041 111.592 89.8868 111.48 90.1428 111.352L90.3188 112.616C90.0521 112.733 89.7268 112.845 89.3428 112.952C88.9695 113.059 88.5161 113.112 87.9828 113.112C87.4601 113.112 86.9855 113.027 86.5588 112.856C86.1321 112.675 85.7641 112.419 85.4548 112.088C85.1455 111.757 84.9055 111.368 84.7348 110.92C84.5641 110.461 84.4788 109.949 84.4788 109.384C84.4788 108.712 84.5801 108.077 84.7828 107.48C84.9961 106.883 85.3001 106.355 85.6948 105.896C86.0895 105.437 86.5641 105.075 87.1188 104.808C87.6735 104.541 88.3028 104.408 89.0068 104.408C89.5081 104.408 89.9508 104.472 90.3348 104.6C90.7188 104.717 91.0655 104.867 91.3748 105.048L90.7828 106.28ZM98.3822 107.032C98.3822 106.627 98.2595 106.301 98.0142 106.056C97.7795 105.8 97.4702 105.672 97.0862 105.672C96.7982 105.672 96.4888 105.747 96.1582 105.896C95.8382 106.045 95.5235 106.28 95.2142 106.6C94.9155 106.909 94.6435 107.304 94.3982 107.784C94.1635 108.264 93.9875 108.84 93.8702 109.512L93.2782 112.92H91.8382L93.9182 101.08H95.3582L94.4302 106.344C94.7608 105.757 95.1928 105.288 95.7262 104.936C96.2595 104.584 96.8302 104.408 97.4382 104.408C97.8008 104.408 98.1315 104.467 98.4302 104.584C98.7288 104.701 98.9795 104.867 99.1822 105.08C99.3955 105.283 99.5555 105.523 99.6622 105.8C99.7795 106.077 99.8382 106.376 99.8382 106.696C99.8382 106.973 99.8062 107.309 99.7422 107.704L98.8302 112.92H97.3902L98.2702 107.944C98.3235 107.688 98.3555 107.501 98.3662 107.384C98.3768 107.267 98.3822 107.149 98.3822 107.032Z" fill="#2D2D2D"/>
</svg>
