<svg width="26" height="29" viewBox="0 0 26 29" fill="none" xmlns="http://www.w3.org/2000/svg">
<path d="M1.035 4.06C1.185 3.64 1.395 3.22 1.665 2.8C1.935 2.38 2.265 2.005 2.655 1.675C3.075 1.315 3.555 1.03 4.095 0.819999C4.635 0.579998 5.235 0.459998 5.895 0.459998C6.765 0.459998 7.53 0.684999 8.19 1.135C8.85 1.555 9.525 2.29 10.215 3.34L13.725 8.695L18.9 1.045C19.14 0.924998 19.47 0.819999 19.89 0.73C20.34 0.609999 20.775 0.549999 21.195 0.549999C22.575 0.549999 23.655 0.88 24.435 1.54C25.215 2.2 25.605 3.01 25.605 3.97C25.605 4.81 25.38 5.56 24.93 6.22C24.51 6.88 23.925 7.675 23.175 8.605L18.54 14.275L25.875 24.76C25.635 25.87 25.11 26.755 24.3 27.415C23.52 28.045 22.455 28.36 21.105 28.36C20.235 28.36 19.485 28.15 18.855 27.73C18.225 27.28 17.58 26.53 16.92 25.48L13.275 19.72L7.605 28.27C7.365 28.3 7.14 28.315 6.93 28.315C6.72 28.345 6.51 28.36 6.3 28.36C4.59 28.36 3.33 28.015 2.52 27.325C1.71 26.635 1.305 25.78 1.305 24.76C1.305 23.89 1.485 23.14 1.845 22.51C2.235 21.85 2.775 21.085 3.465 20.215L8.19 14.14L1.035 4.06Z" fill="#C50000"/>
</svg>
